<svg width="18" height="18" viewBox="0 0 18 18" fill="none" xmlns="http://www.w3.org/2000/svg">
<path fill-rule="evenodd" clip-rule="evenodd" d="M12.4442 17.3149C11.3522 17.7672 10.1819 18 9 18C7.8181 18 6.64778 17.7672 5.55585 17.3149C4.46392 16.8626 3.47177 16.1997 2.63604 15.364C1.80031 14.5282 1.13737 13.5361 0.685083 12.4442C0.23279 11.3522 0 10.1819 0 9C0 7.8181 0.23279 6.64778 0.685083 5.55585C1.13737 4.46392 1.80031 3.47177 2.63604 2.63604C3.47177 1.80031 4.46392 1.13737 5.55585 0.685083C6.64778 0.23279 7.8181 0 9 0C10.1819 0 11.3522 0.23279 12.4442 0.685083C13.5361 1.13737 14.5282 1.80031 15.364 2.63604C16.1997 3.47177 16.8626 4.46392 17.3149 5.55585C17.7672 6.64778 18 7.8181 18 9C18 10.1819 17.7672 11.3522 17.3149 12.4442C16.8626 13.5361 16.1997 14.5282 15.364 15.364C14.5282 16.1997 13.5361 16.8626 12.4442 17.3149ZM9 16.6154C10.0001 16.6154 10.9903 16.4184 11.9143 16.0357C12.8382 15.653 13.6777 15.092 14.3849 14.3849C15.092 13.6777 15.653 12.8382 16.0357 11.9143C16.4184 10.9903 16.6154 10.0001 16.6154 9C16.6154 7.99993 16.4184 7.00966 16.0357 6.08572C15.653 5.16178 15.092 4.32226 14.3849 3.61511C13.6777 2.90796 12.8382 2.34701 11.9143 1.9643C10.9903 1.58159 10.0001 1.38461 9 1.38461C7.99993 1.38461 7.00966 1.58159 6.08572 1.9643C5.16178 2.34701 4.32227 2.90796 3.61511 3.61511C2.90796 4.32227 2.34701 5.16178 1.9643 6.08572C1.58159 7.00966 1.38461 7.99993 1.38461 9C1.38461 10.0001 1.58159 10.9903 1.9643 11.9143C2.34701 12.8382 2.90796 13.6777 3.61511 14.3849C4.32226 15.092 5.16178 15.653 6.08572 16.0357C7.00966 16.4184 7.99993 16.6154 9 16.6154ZM9 12.4615C8.61765 12.4615 8.30769 12.1516 8.30769 11.7692V8.07692C8.30769 7.69457 8.61765 7.38461 9 7.38461C9.38235 7.38461 9.69231 7.69457 9.69231 8.07692V11.7692C9.69231 12.1516 9.38235 12.4615 9 12.4615ZM9 6C8.61765 6 8.30769 5.69004 8.30769 5.30769V5.29846C8.30769 4.91611 8.61765 4.60615 9 4.60615C9.38235 4.60615 9.69231 4.91611 9.69231 5.29846V5.30769C9.69231 5.69004 9.38235 6 9 6Z" fill="#28222A"/>
</svg>
