<svg width="13" height="18" viewBox="0 0 13 18" fill="none" xmlns="http://www.w3.org/2000/svg">
<path fill-rule="evenodd" clip-rule="evenodd" d="M6.25481 1.26701C4.52772 1.26701 3.13796 2.66335 3.13796 4.38386C3.13796 6.05886 4.44643 7.41791 6.09845 7.49129C6.19863 7.48432 6.30447 7.48398 6.40432 7.49121C8.05471 7.41707 9.36397 6.05891 9.37166 4.38257C9.37096 2.66358 7.97396 1.26701 6.25481 1.26701ZM1.87095 4.38386C1.87095 1.96546 3.82611 0 6.25481 0C8.67414 0 10.6387 1.96453 10.6387 4.38386L10.6387 4.3865C10.6288 6.75191 8.7643 8.67982 6.41124 8.75891C6.3831 8.75986 6.35493 8.75893 6.32692 8.75612C6.28619 8.75205 6.22532 8.75151 6.16857 8.75667C6.14243 8.75904 6.11617 8.75979 6.08993 8.75891C3.73734 8.67983 1.87095 6.75179 1.87095 4.38386ZM6.40052 9.44979C8.02922 9.44979 9.69008 9.85854 10.9736 10.7158C12.1273 11.4837 12.7884 12.5602 12.7884 13.7186C12.7884 14.8769 12.1275 15.9553 10.9742 16.7273L10.9741 16.7274C9.6866 17.5888 8.02363 18 6.39418 18C4.765 18 3.10231 17.5889 1.81493 16.7278C0.661088 15.9599 0 14.8834 0 13.7249C0 12.5666 0.660908 11.4882 1.81418 10.7162L1.81651 10.7146C3.10753 9.85861 4.77162 9.44979 6.40052 9.44979ZM2.51785 11.7698C1.62785 12.366 1.26701 13.0864 1.26701 13.7249C1.26701 14.3632 1.62769 15.0814 2.51749 15.6734L2.51888 15.6743C3.55427 16.3671 4.95746 16.733 6.39418 16.733C7.83085 16.733 9.23399 16.3671 10.2694 15.6744C11.1602 15.0781 11.5214 14.3573 11.5214 13.7186C11.5214 13.0802 11.1607 12.362 10.2709 11.7701L10.2699 11.7694C9.23906 11.0809 7.83798 10.7168 6.40052 10.7168C4.96379 10.7168 3.558 11.0806 2.51785 11.7698Z" fill="#28222A"/>
</svg>
