<svg width="78" height="66" viewBox="0 0 78 66" fill="none" xmlns="http://www.w3.org/2000/svg">
<g filter="url(#filter0_d_1289_3510)">
<circle cx="39" cy="33" r="18.8571" fill="#AD2EE5"/>
</g>
<path d="M45.4286 34.0714H40.0714V39.4286C40.0714 40.0179 39.5893 40.5 39 40.5C38.4107 40.5 37.9286 40.0179 37.9286 39.4286V34.0714H32.5714C31.9821 34.0714 31.5 33.5893 31.5 33C31.5 32.4107 31.9821 31.9286 32.5714 31.9286H37.9286V26.5714C37.9286 25.9821 38.4107 25.5 39 25.5C39.5893 25.5 40.0714 25.9821 40.0714 26.5714V31.9286H45.4286C46.0179 31.9286 46.5 32.4107 46.5 33C46.5 33.5893 46.0179 34.0714 45.4286 34.0714Z" fill="white"/>
<defs>
<filter id="filter0_d_1289_3510" x="0.142883" y="-1.85718" width="77.7143" height="77.7144" filterUnits="userSpaceOnUse" color-interpolation-filters="sRGB">
<feFlood flood-opacity="0" result="BackgroundImageFix"/>
<feColorMatrix in="SourceAlpha" type="matrix" values="0 0 0 0 0 0 0 0 0 0 0 0 0 0 0 0 0 0 127 0" result="hardAlpha"/>
<feOffset dy="4"/>
<feGaussianBlur stdDeviation="10"/>
<feComposite in2="hardAlpha" operator="out"/>
<feColorMatrix type="matrix" values="0 0 0 0 0.964872 0 0 0 0 0.911667 0 0 0 0 0.988333 0 0 0 1 0"/>
<feBlend mode="normal" in2="BackgroundImageFix" result="effect1_dropShadow_1289_3510"/>
<feBlend mode="normal" in="SourceGraphic" in2="effect1_dropShadow_1289_3510" result="shape"/>
</filter>
</defs>
</svg>
