<svg width="260" height="260" viewBox="0 0 260 260" fill="none" xmlns="http://www.w3.org/2000/svg">
<path d="M125.164 82.7157C120.983 87.2121 117.662 92.4936 115.318 98.2527C112.008 93.7282 106.66 90.7895 100.625 90.7895C90.5787 90.7895 82.4345 98.9337 82.4345 108.98C82.4345 119.027 90.5787 127.171 100.625 127.171C110.672 127.171 118.816 119.027 118.816 108.98C118.816 107.989 118.866 106.993 119.126 106.037C121.327 97.955 125.556 90.6776 131.389 85.105C139.163 77.678 149.201 73.838 159.458 74.3669C167.179 74.7651 174.587 77.6161 180.838 82.4982C181.556 83.1101 182.252 83.7519 182.924 84.4228C189.715 91.2022 193.531 100.397 193.531 109.984C193.531 124.95 182.103 140.631 159.73 157.38C159.034 157.902 158.187 158.184 157.316 158.184C156.445 158.184 155.598 157.902 154.902 157.38C145.829 150.588 138.556 143.972 133.115 137.507C137.651 132.804 141.229 127.194 143.702 121.045C147.034 124.803 151.898 127.171 157.316 127.171C167.362 127.171 175.507 119.027 175.507 108.98C175.507 98.9337 167.362 90.7895 157.316 90.7895C147.27 90.7895 139.125 98.9337 139.125 108.98C139.125 110.812 139.396 112.581 139.9 114.249C136.348 121.045 133.809 125.811 129.499 132.564L129.353 132.65C129.499 132.564 129.516 132.564 129.353 132.65C123.699 140.649 115.162 148.877 103.803 157.38C103.107 157.902 102.26 158.184 101.389 158.184C100.518 158.184 99.6713 157.902 98.9748 157.38C76.602 140.631 65.1742 124.95 65.1742 109.984C65.1742 100.397 68.9897 91.2022 75.7813 84.4228C82.5729 77.6435 91.7843 73.8349 101.389 73.8349C110.155 73.8349 118.594 77.0075 125.164 82.7157Z" fill="#AD2EE5"/>
<path d="M172.656 52.0508C172.656 60.4645 165.836 67.2852 157.422 67.2852C149.008 67.2852 142.188 60.4645 142.188 52.0508C142.188 43.6371 149.008 36.8164 157.422 36.8164C165.836 36.8164 172.656 43.6371 172.656 52.0508Z" fill="#AD2EE5"/>
<path d="M115.781 52.0508C115.781 60.4645 108.961 67.2852 100.547 67.2852C92.1332 67.2852 85.3125 60.4645 85.3125 52.0508C85.3125 43.6371 92.1332 36.8164 100.547 36.8164C108.961 36.8164 115.781 43.6371 115.781 52.0508Z" fill="#AD2EE5"/>
<path d="M41.038 206.62C35.9429 206.62 32.0561 205.368 29.3776 202.865C26.699 200.361 25.3598 196.823 25.3598 192.252C25.3598 187.536 26.6699 183.925 29.2902 181.422C31.9106 178.889 35.8119 177.622 40.9943 177.622C42.7412 177.622 44.2988 177.753 45.6672 178.015C47.0356 178.277 48.3457 178.641 49.5977 179.107V186.269C47.0938 185.163 44.4153 184.61 41.562 184.61C38.9126 184.61 36.9474 185.221 35.6663 186.444C34.3853 187.638 33.7448 189.574 33.7448 192.252C33.7448 194.873 34.4144 196.765 35.7537 197.93C37.1221 199.065 39.0873 199.633 41.6494 199.633C43.0469 199.633 44.4007 199.502 45.7109 199.24C47.0501 198.978 48.3749 198.57 49.685 198.017V205.223C48.4331 205.66 47.1084 205.994 45.7109 206.227C44.3425 206.489 42.7849 206.62 41.038 206.62ZM52.7605 206.184V176.749H60.9708V186.75C61.6986 186.255 62.6012 185.847 63.6784 185.527C64.7848 185.207 65.9639 185.046 67.2159 185.046C70.0691 185.046 72.1508 185.716 73.4609 187.055C74.7711 188.365 75.4262 190.403 75.4262 193.169V206.184H67.1722V193.781C67.1722 192.82 66.9684 192.136 66.5608 191.728C66.1823 191.321 65.4835 191.117 64.4645 191.117C63.8531 191.117 63.2126 191.262 62.543 191.554C61.9024 191.845 61.3784 192.194 60.9708 192.602V206.184H52.7605ZM90.2596 206.62C87.8431 206.62 85.7032 206.227 83.8398 205.441C82.0056 204.626 80.5644 203.418 79.5163 201.816C78.4973 200.215 77.9878 198.235 77.9878 195.877C77.9878 192.587 78.9195 189.967 80.7828 188.016C82.6461 186.036 85.4266 185.046 89.1241 185.046C92.5014 185.046 95.1363 185.905 97.0287 187.623C98.9503 189.341 99.9111 191.685 99.9111 194.654V198.279H85.543C85.9215 199.385 86.6639 200.171 87.7703 200.637C88.8766 201.103 90.376 201.336 92.2685 201.336C93.4622 201.336 94.6559 201.234 95.8496 201.03C97.0724 200.797 98.0477 200.535 98.7756 200.244V205.179C96.7376 206.14 93.8989 206.62 90.2596 206.62ZM85.543 193.824H92.8362V193.082C92.8362 192.267 92.5742 191.597 92.0501 191.073C91.5552 190.549 90.6672 190.287 89.3862 190.287C87.9595 190.287 86.9551 190.593 86.3728 191.204C85.8196 191.786 85.543 192.66 85.543 193.824ZM114.269 206.62C110.513 206.62 107.543 205.732 105.359 203.956C103.176 202.151 102.084 199.444 102.084 195.833C102.084 193.388 102.594 191.364 103.613 189.763C104.632 188.162 106.058 186.983 107.892 186.226C109.727 185.439 111.867 185.046 114.312 185.046C115.855 185.046 117.238 185.163 118.461 185.396C119.684 185.6 120.848 185.964 121.955 186.488V192.252C120.237 191.437 118.286 191.029 116.103 191.029C114.239 191.029 112.827 191.379 111.867 192.078C110.935 192.776 110.469 194.028 110.469 195.833C110.469 197.522 110.92 198.745 111.823 199.502C112.725 200.259 114.152 200.637 116.103 200.637C117.151 200.637 118.17 200.521 119.16 200.288C120.15 200.026 121.096 199.662 121.998 199.196V205.223C120.892 205.718 119.698 206.067 118.417 206.271C117.165 206.504 115.783 206.62 114.269 206.62ZM125.049 206.184V176.749H133.26V191.291L139.024 185.483H148.326L140.072 194.217L148.807 206.184H140.072L134.963 198.497L133.26 200.201V206.184H125.049ZM160.203 206.62C157.786 206.62 155.646 206.227 153.783 205.441C151.949 204.626 150.508 203.418 149.46 201.816C148.441 200.215 147.931 198.235 147.931 195.877C147.931 192.587 148.863 189.967 150.726 188.016C152.589 186.036 155.37 185.046 159.067 185.046C162.445 185.046 165.08 185.905 166.972 187.623C168.894 189.341 169.854 191.685 169.854 194.654V198.279H155.486C155.865 199.385 156.607 200.171 157.714 200.637C158.82 201.103 160.319 201.336 162.212 201.336C163.405 201.336 164.599 201.234 165.793 201.03C167.016 200.797 167.991 200.535 168.719 200.244V205.179C166.681 206.14 163.842 206.62 160.203 206.62ZM155.486 193.824H162.779V193.082C162.779 192.267 162.517 191.597 161.993 191.073C161.498 190.549 160.61 190.287 159.329 190.287C157.903 190.287 156.898 190.593 156.316 191.204C155.763 191.786 155.486 192.66 155.486 193.824ZM181.679 206.62C179.728 206.62 178.025 206.3 176.569 205.66C175.143 204.99 174.022 203.913 173.206 202.428C172.42 200.943 172.027 198.963 172.027 196.488C172.027 193.955 172.479 191.845 173.381 190.156C174.284 188.467 175.492 187.201 177.006 186.357C178.52 185.483 180.165 185.046 181.941 185.046C182.902 185.046 183.848 185.148 184.78 185.352C185.74 185.556 186.57 185.847 187.269 186.226V176.749H195.479V206.184H188.361L187.968 204.568C187.152 205.208 186.235 205.718 185.216 206.096C184.226 206.446 183.047 206.62 181.679 206.62ZM184.037 200.681C185.289 200.681 186.366 200.259 187.269 199.414V192.078C186.454 191.35 185.376 190.986 184.037 190.986C182.96 190.986 182.086 191.466 181.417 192.427C180.747 193.388 180.412 194.756 180.412 196.532C180.412 198.279 180.703 199.414 181.286 199.939C181.868 200.433 182.785 200.681 184.037 200.681ZM199.428 206.184V178.059H207.638V206.184H199.428ZM211.583 206.184V185.483H219.269L219.487 187.055C220.273 186.531 221.307 186.065 222.588 185.658C223.898 185.25 225.296 185.046 226.781 185.046C229.372 185.046 231.264 185.687 232.458 186.968C233.652 188.249 234.248 190.229 234.248 192.907V206.184H226.038V193.737C226.038 192.805 225.834 192.136 225.427 191.728C225.019 191.321 224.306 191.117 223.287 191.117C222.675 191.117 222.035 191.262 221.365 191.554C220.725 191.845 220.201 192.194 219.793 192.602V206.184H211.583Z" fill="#AD2EE5"/>
</svg>
