<svg width="40" height="40" viewBox="0 0 40 40" fill="none" xmlns="http://www.w3.org/2000/svg">
<rect width="40" height="40" rx="10" fill="white"/>
<path d="M23.3046 28C23.4814 28 23.6582 27.9354 23.7977 27.797C24.0676 27.5293 24.0676 27.0864 23.7977 26.8187L17.7309 20.8017C17.2842 20.3588 17.2842 19.6389 17.7309 19.196L23.7977 13.1789C24.0676 12.9113 24.0676 12.4683 23.7977 12.2007C23.5279 11.9331 23.0813 11.9331 22.8114 12.2007L16.7445 18.2177C16.27 18.6884 16.0001 19.3252 16.0001 19.9988C16.0001 20.6725 16.2607 21.3093 16.7445 21.78L22.8114 27.797C22.951 27.9262 23.1278 28 23.3046 28Z" fill="#0D0212"/>
</svg>
