<svg width="24" height="24" viewBox="0 0 24 24" fill="none" xmlns="http://www.w3.org/2000/svg">
<path d="M15.3044 20C15.4812 20 15.658 19.9354 15.7976 19.797C16.0675 19.5293 16.0675 19.0864 15.7976 18.8187L9.73074 12.8017C9.28409 12.3588 9.28409 11.6389 9.73074 11.196L15.7976 5.17895C16.0675 4.91132 16.0675 4.46835 15.7976 4.20072C15.5278 3.93309 15.0811 3.93309 14.8113 4.20072L8.7444 10.2177C8.26985 10.6884 8 11.3252 8 11.9988C8 12.6725 8.26054 13.3093 8.7444 13.78L14.8113 19.797C14.9509 19.9262 15.1277 20 15.3044 20Z" fill="#0D0212"/>
</svg>
