<svg width="22" height="22" viewBox="0 0 22 22" fill="none" xmlns="http://www.w3.org/2000/svg">
<path fill-rule="evenodd" clip-rule="evenodd" d="M3.21567 3.21567C2.42476 4.00658 1.96512 5.25245 1.96512 7.09302V11.9767C1.96512 14.3554 2.4473 15.5459 3.18007 16.1871C3.93703 16.8494 5.15249 17.1047 7.09302 17.1047H7.5814C7.85763 17.1047 8.12638 17.1909 8.33775 17.2956C8.54645 17.3991 8.7825 17.562 8.95142 17.7918L10.414 19.7419C10.6183 20.0143 10.8376 20.0935 11 20.0935C11.1624 20.0935 11.3817 20.0143 11.586 19.7419L13.0512 17.7884L13.054 17.7846C13.376 17.361 13.8834 17.1047 14.4186 17.1047H14.907C16.7475 17.1047 17.9934 16.645 18.7843 15.8541C19.5752 15.0632 20.0349 13.8173 20.0349 11.9767V7.09302C20.0349 5.25245 19.5752 4.00658 18.7843 3.21567C17.9934 2.42476 16.7475 1.96512 14.907 1.96512H7.09302C5.25245 1.96512 4.00658 2.42476 3.21567 3.21567ZM2.17968 2.17968C3.34226 1.0171 5.02662 0.5 7.09302 0.5H14.907C16.9734 0.5 18.6577 1.0171 19.8203 2.17968C20.9829 3.34226 21.5 5.02662 21.5 7.09302V11.9767C21.5 14.0432 20.9829 15.7275 19.8203 16.8901C18.6577 18.0527 16.9734 18.5698 14.907 18.5698H14.4186C14.3487 18.5698 14.2707 18.606 14.2215 18.6698L14.2204 18.6712L12.7581 20.6209C12.3178 21.2081 11.6873 21.5586 11 21.5586C10.3127 21.5586 9.68221 21.2081 9.24186 20.6209L7.77554 18.6658C7.77337 18.6638 7.76896 18.6598 7.7618 18.6542C7.74414 18.6405 7.7185 18.6239 7.68702 18.6083C7.65561 18.5927 7.62566 18.5817 7.60164 18.5752C7.5875 18.5714 7.57911 18.5701 7.57646 18.5698H7.09302C5.12658 18.5698 3.41181 18.3366 2.21528 17.2897C0.994558 16.2215 0.5 14.4818 0.5 11.9767V7.09302C0.5 5.02662 1.0171 3.34226 2.17968 2.17968Z" fill="#BFB6C3"/>
<path fill-rule="evenodd" clip-rule="evenodd" d="M13.9268 10.0233C13.9268 9.48382 14.3641 9.04651 14.9035 9.04651H14.9123C15.4517 9.04651 15.889 9.48382 15.889 10.0233C15.889 10.5627 15.4517 11 14.9123 11H14.9035C14.3641 11 13.9268 10.5627 13.9268 10.0233Z" fill="#BFB6C3"/>
<path fill-rule="evenodd" clip-rule="evenodd" d="M10.0188 10.0233C10.0188 9.48382 10.4561 9.04651 10.9956 9.04651H11.0044C11.5438 9.04651 11.9811 9.48382 11.9811 10.0233C11.9811 10.5627 11.5438 11 11.0044 11H10.9956C10.4561 11 10.0188 10.5627 10.0188 10.0233Z" fill="#BFB6C3"/>
<path fill-rule="evenodd" clip-rule="evenodd" d="M6.11091 10.0233C6.11091 9.48382 6.54822 9.04651 7.08766 9.04651H7.09643C7.63587 9.04651 8.07318 9.48382 8.07318 10.0233C8.07318 10.5627 7.63587 11 7.09643 11H7.08766C6.54822 11 6.11091 10.5627 6.11091 10.0233Z" fill="#BFB6C3"/>
</svg>
