<svg width="16" height="16" viewBox="0 0 16 16" fill="none" xmlns="http://www.w3.org/2000/svg">
<path fill-rule="evenodd" clip-rule="evenodd" d="M2.43977 2.43977C1.87483 3.0047 1.54651 3.89461 1.54651 5.2093V8.69767C1.54651 10.3967 1.89093 11.2471 2.41433 11.705C2.95502 12.1781 3.82321 12.3605 5.2093 12.3605H5.55814C5.75545 12.3605 5.94742 12.422 6.09839 12.4969C6.24746 12.5708 6.41607 12.6871 6.53673 12.8513L7.5814 14.2442C7.72732 14.4388 7.88399 14.4953 8 14.4953C8.11601 14.4953 8.27268 14.4388 8.4186 14.2442L9.46512 12.8488L9.46712 12.8462C9.69712 12.5435 10.0596 12.3605 10.4419 12.3605H10.7907C12.1054 12.3605 12.9953 12.0321 13.5602 11.4672C14.1252 10.9023 14.4535 10.0124 14.4535 8.69767V5.2093C14.4535 3.89461 14.1252 3.0047 13.5602 2.43977C12.9953 1.87483 12.1054 1.54651 10.7907 1.54651H5.2093C3.89461 1.54651 3.0047 1.87483 2.43977 2.43977ZM1.69977 1.69977C2.53018 0.869356 3.7333 0.5 5.2093 0.5H10.7907C12.2667 0.5 13.4698 0.869356 14.3002 1.69977C15.1306 2.53018 15.5 3.7333 15.5 5.2093V8.69767C15.5 10.1737 15.1306 11.3768 14.3002 12.2072C13.4698 13.0376 12.2667 13.407 10.7907 13.407H10.4419C10.3919 13.407 10.3362 13.4328 10.301 13.4785L10.3003 13.4794L9.25581 14.8721C8.94128 15.2915 8.49096 15.5419 8 15.5419C7.50904 15.5419 7.05872 15.2915 6.74419 14.8721L5.69681 13.4756C5.69526 13.4741 5.69212 13.4713 5.687 13.4673C5.67438 13.4575 5.65607 13.4457 5.63359 13.4345C5.61115 13.4234 5.58976 13.4155 5.5726 13.4109C5.5625 13.4081 5.5565 13.4072 5.55461 13.407H5.2093C3.8047 13.407 2.57986 13.2405 1.7252 12.4926C0.853256 11.7297 0.5 10.487 0.5 8.69767V5.2093C0.5 3.7333 0.869356 2.53018 1.69977 1.69977Z" fill="#4A404F"/>
<path fill-rule="evenodd" clip-rule="evenodd" d="M10.0906 7.30233C10.0906 6.91701 10.4029 6.60465 10.7882 6.60465H10.7945C11.1798 6.60465 11.4922 6.91701 11.4922 7.30233C11.4922 7.68764 11.1798 8 10.7945 8H10.7882C10.4029 8 10.0906 7.68764 10.0906 7.30233Z" fill="#4A404F"/>
<path fill-rule="evenodd" clip-rule="evenodd" d="M7.29917 7.30233C7.29917 6.91701 7.61153 6.60465 7.99685 6.60465H8.00311C8.38843 6.60465 8.70079 6.91701 8.70079 7.30233C8.70079 7.68764 8.38843 8 8.00311 8H7.99685C7.61153 8 7.29917 7.68764 7.29917 7.30233Z" fill="#4A404F"/>
<path fill-rule="evenodd" clip-rule="evenodd" d="M4.5078 7.30233C4.5078 6.91701 4.82016 6.60465 5.20547 6.60465H5.21174C5.59705 6.60465 5.90941 6.91701 5.90941 7.30233C5.90941 7.68764 5.59705 8 5.21174 8H5.20547C4.82016 8 4.5078 7.68764 4.5078 7.30233Z" fill="#4A404F"/>
</svg>
