<svg width="20" height="22" viewBox="0 0 20 22" fill="none" xmlns="http://www.w3.org/2000/svg">
<path fill-rule="evenodd" clip-rule="evenodd" d="M6.28297 0.5C6.68755 0.5 7.01552 0.827977 7.01552 1.23256V4.16279C7.01552 4.56737 6.68755 4.89535 6.28297 4.89535C5.87839 4.89535 5.55041 4.56737 5.55041 4.16279V1.23256C5.55041 0.827977 5.87839 0.5 6.28297 0.5Z" fill="#BFB6C3"/>
<path fill-rule="evenodd" clip-rule="evenodd" d="M14.0969 0.5C14.5015 0.5 14.8295 0.827977 14.8295 1.23256V4.16279C14.8295 4.56737 14.5015 4.89535 14.0969 4.89535C13.6923 4.89535 13.3644 4.56737 13.3644 4.16279V1.23256C13.3644 0.827977 13.6923 0.5 14.0969 0.5Z" fill="#BFB6C3"/>
<path fill-rule="evenodd" clip-rule="evenodd" d="M1.15506 8.15767C1.15506 7.75309 1.48304 7.42511 1.88762 7.42511H18.4923C18.8968 7.42511 19.2248 7.75309 19.2248 8.15767C19.2248 8.56225 18.8968 8.89023 18.4923 8.89023H1.88762C1.48304 8.89023 1.15506 8.56225 1.15506 8.15767Z" fill="#BFB6C3"/>
<path fill-rule="evenodd" clip-rule="evenodd" d="M3.09594 4.53917C2.47011 5.21314 2.1318 6.22858 2.1318 7.5814V15.8837C2.1318 17.2365 2.47011 18.252 3.09594 18.9259C3.71264 19.5901 4.71329 20.0349 6.28297 20.0349H14.0969C15.6666 20.0349 16.6672 19.5901 17.2839 18.9259C17.9098 18.252 18.2481 17.2365 18.2481 15.8837V7.5814C18.2481 6.22858 17.9098 5.21314 17.2839 4.53917C16.6672 3.87503 15.6666 3.43023 14.0969 3.43023H6.28297C4.71329 3.43023 3.71264 3.87503 3.09594 4.53917ZM2.02231 3.54223C2.99282 2.49707 4.43404 1.96512 6.28297 1.96512H14.0969C15.9458 1.96512 17.3871 2.49707 18.3576 3.54223C19.319 4.57756 19.7132 6.00398 19.7132 7.5814V15.8837C19.7132 17.4611 19.319 18.8876 18.3576 19.9229C17.3871 20.9681 15.9458 21.5 14.0969 21.5H6.28297C4.43404 21.5 2.99282 20.9681 2.02231 19.9229C1.06093 18.8876 0.666687 17.4611 0.666687 15.8837V7.5814C0.666687 6.00398 1.06093 4.57756 2.02231 3.54223Z" fill="#BFB6C3"/>
<path fill-rule="evenodd" clip-rule="evenodd" d="M12.822 12.6605C12.822 12.121 13.2593 11.6837 13.7987 11.6837H13.8075C14.3469 11.6837 14.7842 12.121 14.7842 12.6605C14.7842 13.1999 14.3469 13.6372 13.8075 13.6372H13.7987C13.2593 13.6372 12.822 13.1999 12.822 12.6605Z" fill="#BFB6C3"/>
<path fill-rule="evenodd" clip-rule="evenodd" d="M12.822 15.5907C12.822 15.0513 13.2593 14.614 13.7987 14.614H13.8075C14.3469 14.614 14.7842 15.0513 14.7842 15.5907C14.7842 16.1301 14.3469 16.5675 13.8075 16.5675H13.7987C13.2593 16.5675 12.822 16.1301 12.822 15.5907Z" fill="#BFB6C3"/>
<path fill-rule="evenodd" clip-rule="evenodd" d="M9.20879 12.6605C9.20879 12.121 9.64609 11.6837 10.1855 11.6837H10.1943C10.7337 11.6837 11.171 12.121 11.171 12.6605C11.171 13.1999 10.7337 13.6372 10.1943 13.6372H10.1855C9.64609 13.6372 9.20879 13.1999 9.20879 12.6605Z" fill="#BFB6C3"/>
<path fill-rule="evenodd" clip-rule="evenodd" d="M9.20879 15.5907C9.20879 15.0513 9.64609 14.614 10.1855 14.614H10.1943C10.7337 14.614 11.171 15.0513 11.171 15.5907C11.171 16.1301 10.7337 16.5675 10.1943 16.5675H10.1855C9.64609 16.5675 9.20879 16.1301 9.20879 15.5907Z" fill="#BFB6C3"/>
<path fill-rule="evenodd" clip-rule="evenodd" d="M5.59369 12.6605C5.59369 12.121 6.03099 11.6837 6.57043 11.6837H6.57921C7.11865 11.6837 7.55595 12.121 7.55595 12.6605C7.55595 13.1999 7.11865 13.6372 6.57921 13.6372H6.57043C6.03099 13.6372 5.59369 13.1999 5.59369 12.6605Z" fill="#BFB6C3"/>
<path fill-rule="evenodd" clip-rule="evenodd" d="M5.59369 15.5907C5.59369 15.0513 6.03099 14.614 6.57043 14.614H6.57921C7.11865 14.614 7.55595 15.0513 7.55595 15.5907C7.55595 16.1301 7.11865 16.5675 6.57921 16.5675H6.57043C6.03099 16.5675 5.59369 16.1301 5.59369 15.5907Z" fill="#BFB6C3"/>
</svg>
