<svg width="17" height="18" viewBox="0 0 17 18" fill="none" xmlns="http://www.w3.org/2000/svg">
<path fill-rule="evenodd" clip-rule="evenodd" d="M4.81395 0C5.16074 0 5.44186 0.281124 5.44186 0.627907V3.13953C5.44186 3.48632 5.16074 3.76744 4.81395 3.76744C4.46717 3.76744 4.18605 3.48632 4.18605 3.13953V0.627907C4.18605 0.281124 4.46717 0 4.81395 0Z" fill="#A294A8"/>
<path fill-rule="evenodd" clip-rule="evenodd" d="M11.5116 0C11.8584 0 12.1395 0.281124 12.1395 0.627907V3.13953C12.1395 3.48632 11.8584 3.76744 11.5116 3.76744C11.1648 3.76744 10.8837 3.48632 10.8837 3.13953V0.627907C10.8837 0.281124 11.1648 0 11.5116 0Z" fill="#A294A8"/>
<path fill-rule="evenodd" clip-rule="evenodd" d="M0.418605 6.56372C0.418605 6.21693 0.699728 5.93581 1.04651 5.93581H15.2791C15.6259 5.93581 15.907 6.21693 15.907 6.56372C15.907 6.9105 15.6259 7.19162 15.2791 7.19162H1.04651C0.699728 7.19162 0.418605 6.9105 0.418605 6.56372Z" fill="#A294A8"/>
<path fill-rule="evenodd" clip-rule="evenodd" d="M2.08222 3.46214C1.54579 4.03983 1.25581 4.91021 1.25581 6.06977V13.186C1.25581 14.3456 1.54579 15.216 2.08222 15.7937C2.61082 16.3629 3.46852 16.7442 4.81395 16.7442H11.5116C12.8571 16.7442 13.7148 16.3629 14.2434 15.7937C14.7798 15.216 15.0698 14.3456 15.0698 13.186V6.06977C15.0698 4.91021 14.7798 4.03983 14.2434 3.46214C13.7148 2.89288 12.8571 2.51163 11.5116 2.51163H4.81395C3.46852 2.51163 2.61082 2.89288 2.08222 3.46214ZM1.16197 2.60762C1.99383 1.71177 3.22916 1.25581 4.81395 1.25581H11.5116C13.0964 1.25581 14.3318 1.71177 15.1636 2.60762C15.9877 3.49505 16.3256 4.7177 16.3256 6.06977V13.186C16.3256 14.5381 15.9877 15.7608 15.1636 16.6482C14.3318 17.544 13.0964 18 11.5116 18H4.81395C3.22916 18 1.99383 17.544 1.16197 16.6482C0.337926 15.7608 0 14.5381 0 13.186V6.06977C0 4.7177 0.337926 3.49505 1.16197 2.60762Z" fill="#A294A8"/>
<path fill-rule="evenodd" clip-rule="evenodd" d="M10.4188 10.4233C10.4188 9.96089 10.7937 9.58606 11.256 9.58606H11.2635C11.7259 9.58606 12.1008 9.96089 12.1008 10.4233C12.1008 10.8856 11.7259 11.2605 11.2635 11.2605H11.256C10.7937 11.2605 10.4188 10.8856 10.4188 10.4233Z" fill="#A294A8"/>
<path fill-rule="evenodd" clip-rule="evenodd" d="M10.4188 12.9349C10.4188 12.4725 10.7937 12.0977 11.256 12.0977H11.2635C11.7259 12.0977 12.1008 12.4725 12.1008 12.9349C12.1008 13.3973 11.7259 13.7721 11.2635 13.7721H11.256C10.7937 13.7721 10.4188 13.3973 10.4188 12.9349Z" fill="#A294A8"/>
<path fill-rule="evenodd" clip-rule="evenodd" d="M7.3218 10.4233C7.3218 9.96089 7.69663 9.58606 8.15901 9.58606H8.16653C8.62891 9.58606 9.00374 9.96089 9.00374 10.4233C9.00374 10.8856 8.62891 11.2605 8.16653 11.2605H8.15901C7.69663 11.2605 7.3218 10.8856 7.3218 10.4233Z" fill="#A294A8"/>
<path fill-rule="evenodd" clip-rule="evenodd" d="M7.3218 12.9349C7.3218 12.4725 7.69663 12.0977 8.15901 12.0977H8.16653C8.62891 12.0977 9.00374 12.4725 9.00374 12.9349C9.00374 13.3973 8.62891 13.7721 8.16653 13.7721H8.15901C7.69663 13.7721 7.3218 13.3973 7.3218 12.9349Z" fill="#A294A8"/>
<path fill-rule="evenodd" clip-rule="evenodd" d="M4.22315 10.4233C4.22315 9.96089 4.59798 9.58606 5.06035 9.58606H5.06787C5.53025 9.58606 5.90508 9.96089 5.90508 10.4233C5.90508 10.8856 5.53025 11.2605 5.06787 11.2605H5.06035C4.59798 11.2605 4.22315 10.8856 4.22315 10.4233Z" fill="#A294A8"/>
<path fill-rule="evenodd" clip-rule="evenodd" d="M4.22315 12.9349C4.22315 12.4725 4.59798 12.0977 5.06035 12.0977H5.06787C5.53025 12.0977 5.90508 12.4725 5.90508 12.9349C5.90508 13.3973 5.53025 13.7721 5.06787 13.7721H5.06035C4.59798 13.7721 4.22315 13.3973 4.22315 12.9349Z" fill="#A294A8"/>
</svg>
