<svg width="17" height="18" viewBox="0 0 17 18" fill="none" xmlns="http://www.w3.org/2000/svg">
<g opacity="0.9">
<path d="M2.83649 17.25C2.28022 17.25 1.76043 17.0585 1.38655 16.7029C0.912351 16.256 0.684372 15.5812 0.766445 14.8517L1.10385 11.8971C1.16769 11.3408 1.5051 10.6021 1.89722 10.2009L9.38405 2.27635C11.2535 0.297489 13.205 0.242774 15.1838 2.1122C17.1627 3.98163 17.2174 5.93313 15.348 7.91198L7.86115 15.8365C7.47814 16.2469 6.76685 16.6299 6.21058 16.7211L3.27421 17.2226C3.11919 17.2318 2.9824 17.25 2.83649 17.25ZM12.3113 2.10308C11.6091 2.10308 10.9981 2.5408 10.378 3.19738L2.89121 11.131C2.70882 11.3226 2.49908 11.7785 2.46261 12.043L2.1252 14.9976C2.08872 15.2985 2.16168 15.5447 2.32582 15.6997C2.48997 15.8548 2.73618 15.9095 3.03711 15.8639L5.97348 15.3623C6.23794 15.3167 6.67566 15.0796 6.85804 14.8881L14.3449 6.96359C15.4756 5.75986 15.886 4.64733 14.2354 3.09707C13.5059 2.39489 12.8767 2.10308 12.3113 2.10308Z" fill="#28222A"/>
<path d="M13.5971 9.43488C13.5789 9.43488 13.5515 9.43488 13.5333 9.43488C10.6881 9.15219 8.39918 6.99095 7.96146 4.16401C7.90674 3.79013 8.16208 3.4436 8.53597 3.37976C8.90985 3.32505 9.25638 3.58039 9.32021 3.95427C9.66674 6.16111 11.4541 7.85727 13.6792 8.07613C14.0531 8.11261 14.3266 8.45001 14.2902 8.8239C14.2446 9.17043 13.9436 9.43488 13.5971 9.43488Z" fill="#28222A"/>
</g>
</svg>
