<svg width="21" height="20" viewBox="0 0 21 20" fill="none" xmlns="http://www.w3.org/2000/svg">
<path d="M12.593 17.5H8.40698C4.6186 17.5 3 15.8814 3 12.093V7.90698C3 4.1186 4.6186 2.5 8.40698 2.5H12.593C16.3814 2.5 18 4.1186 18 7.90698V12.093C18 15.8814 16.3814 17.5 12.593 17.5ZM8.40698 3.54651C5.1907 3.54651 4.04651 4.6907 4.04651 7.90698V12.093C4.04651 15.3093 5.1907 16.4535 8.40698 16.4535H12.593C15.8093 16.4535 16.9535 15.3093 16.9535 12.093V7.90698C16.9535 4.6907 15.8093 3.54651 12.593 3.54651H8.40698Z" fill="#500E6D"/>
<path d="M8.40698 9.12791C7.34651 9.12791 6.48837 8.26977 6.48837 7.2093C6.48837 6.14884 7.34651 5.2907 8.40698 5.2907C9.46744 5.2907 10.3256 6.14884 10.3256 7.2093C10.3256 8.26977 9.46744 9.12791 8.40698 9.12791ZM8.40698 6.33721C7.92558 6.33721 7.53488 6.72791 7.53488 7.2093C7.53488 7.6907 7.92558 8.0814 8.40698 8.0814C8.88837 8.0814 9.27907 7.6907 9.27907 7.2093C9.27907 6.72791 8.88837 6.33721 8.40698 6.33721Z" fill="#500E6D"/>
<path d="M3.9907 15.3721C3.82326 15.3721 3.65581 15.2884 3.55814 15.1419C3.39767 14.9047 3.46047 14.5767 3.70465 14.4163L7.14419 12.107C7.89767 11.5977 8.93721 11.6605 9.62093 12.2395L9.85116 12.4419C10.2 12.7419 10.793 12.7419 11.1349 12.4419L14.0372 9.95116C14.7767 9.31628 15.9419 9.31628 16.6884 9.95116L17.8256 10.9279C18.0419 11.1163 18.0698 11.4442 17.8814 11.6674C17.693 11.8837 17.3651 11.9116 17.1419 11.7233L16.0047 10.7465C15.6558 10.4465 15.0628 10.4465 14.714 10.7465L11.8116 13.2372C11.0721 13.8721 9.90698 13.8721 9.16046 13.2372L8.93023 13.0349C8.6093 12.7628 8.07907 12.7349 7.72326 12.9791L4.28372 15.2884C4.19302 15.3442 4.08837 15.3721 3.9907 15.3721Z" fill="#500E6D"/>
</svg>
