<svg width="38" height="39" viewBox="0 0 38 39" fill="none" xmlns="http://www.w3.org/2000/svg">
<path d="M24.2326 38.25H13.7674C4.29651 38.25 0.25 34.2035 0.25 24.7326V14.2674C0.25 4.79651 4.29651 0.75 13.7674 0.75H24.2326C33.7035 0.75 37.75 4.79651 37.75 14.2674V24.7326C37.75 34.2035 33.7035 38.25 24.2326 38.25ZM13.7674 3.36628C5.72674 3.36628 2.86628 6.22674 2.86628 14.2674V24.7326C2.86628 32.7733 5.72674 35.6337 13.7674 35.6337H24.2326C32.2733 35.6337 35.1337 32.7733 35.1337 24.7326V14.2674C35.1337 6.22674 32.2733 3.36628 24.2326 3.36628H13.7674Z" fill="#BFB6C3"/>
<path d="M13.7674 17.3198C11.1163 17.3198 8.97093 15.1744 8.97093 12.5233C8.97093 9.87209 11.1163 7.72674 13.7674 7.72674C16.4186 7.72674 18.564 9.87209 18.564 12.5233C18.564 15.1744 16.4186 17.3198 13.7674 17.3198ZM13.7674 10.343C12.564 10.343 11.5872 11.3198 11.5872 12.5233C11.5872 13.7267 12.564 14.7035 13.7674 14.7035C14.9709 14.7035 15.9477 13.7267 15.9477 12.5233C15.9477 11.3198 14.9709 10.343 13.7674 10.343Z" fill="#BFB6C3"/>
<path d="M2.72674 32.9302C2.30814 32.9302 1.88953 32.7209 1.64535 32.3547C1.24419 31.7616 1.40116 30.9419 2.01163 30.5407L10.6105 24.7674C12.4942 23.4942 15.093 23.6512 16.8023 25.0988L17.3779 25.6047C18.25 26.3547 19.7326 26.3547 20.5872 25.6047L27.843 19.3779C29.6919 17.7907 32.6046 17.7907 34.4709 19.3779L37.3139 21.8198C37.8546 22.2907 37.9244 23.1105 37.4535 23.6686C36.9826 24.2093 36.1628 24.2791 35.6046 23.8081L32.7616 21.3663C31.8895 20.6163 30.407 20.6163 29.5349 21.3663L22.2791 27.593C20.4302 29.1802 17.5174 29.1802 15.6512 27.593L15.0756 27.0872C14.2733 26.407 12.9477 26.3372 12.0581 26.9477L3.4593 32.7209C3.23256 32.8605 2.97093 32.9302 2.72674 32.9302Z" fill="#BFB6C3"/>
</svg>
