<svg width="24" height="24" viewBox="0 0 24 24" fill="none" xmlns="http://www.w3.org/2000/svg">
<path fill-rule="evenodd" clip-rule="evenodd" d="M5.10571 5.10571C6.93419 3.27723 9.41414 2.25 12 2.25C14.5859 2.25 17.0658 3.27723 18.8943 5.10571C20.7228 6.93419 21.75 9.41414 21.75 12C21.75 13.2804 21.4978 14.5482 21.0078 15.7312C20.5178 16.9141 19.7997 17.9889 18.8943 18.8943C17.9889 19.7997 16.9141 20.5178 15.7312 21.0078C14.5482 21.4978 13.2804 21.75 12 21.75C10.7196 21.75 9.45176 21.4978 8.26884 21.0078C7.08591 20.5178 6.01108 19.7997 5.10571 18.8943C4.20034 17.9889 3.48216 16.9141 2.99217 15.7312C2.50219 14.5482 2.25 13.2804 2.25 12C2.25 9.41414 3.27723 6.93419 5.10571 5.10571ZM12 3.75C9.81196 3.75 7.71354 4.61919 6.16637 6.16637C4.61919 7.71354 3.75 9.81196 3.75 12C3.75 13.0834 3.96339 14.1562 4.37799 15.1571C4.79259 16.1581 5.40029 17.0675 6.16637 17.8336C6.93245 18.5997 7.84193 19.2074 8.84286 19.622C9.8438 20.0366 10.9166 20.25 12 20.25C13.0834 20.25 14.1562 20.0366 15.1571 19.622C16.1581 19.2074 17.0675 18.5997 17.8336 17.8336C18.5997 17.0675 19.2074 16.1581 19.622 15.1571C20.0366 14.1562 20.25 13.0834 20.25 12C20.25 9.81196 19.3808 7.71354 17.8336 6.16637C16.2865 4.61919 14.188 3.75 12 3.75Z" fill="#28222A"/>
<path fill-rule="evenodd" clip-rule="evenodd" d="M12 15.25C12.4142 15.25 12.75 15.5858 12.75 16V16.01C12.75 16.4242 12.4142 16.76 12 16.76C11.5858 16.76 11.25 16.4242 11.25 16.01V16C11.25 15.5858 11.5858 15.25 12 15.25Z" fill="#28222A"/>
<path fill-rule="evenodd" clip-rule="evenodd" d="M11.4757 8.3033C12.0797 8.18244 12.7069 8.26943 13.2552 8.55012C13.8059 8.8309 14.2459 9.28903 14.5043 9.85058C14.7628 10.4124 14.8243 11.0449 14.6791 11.646C14.5338 12.2471 14.1902 12.7817 13.7036 13.1635C13.2171 13.5452 12.6162 13.7519 11.9977 13.75C11.5835 13.7488 11.2488 13.412 11.25 12.9977C11.2512 12.5835 11.588 12.2488 12.0023 12.25C12.2833 12.2508 12.5565 12.1569 12.7777 11.9834C12.9988 11.8099 13.155 11.5669 13.221 11.2936C13.2871 11.0204 13.2591 10.7329 13.1416 10.4775C13.0241 10.2222 12.824 10.0139 12.5735 9.88625L12.5721 9.88552C12.3249 9.75892 12.0422 9.71967 11.77 9.77414C11.4977 9.82862 11.2519 9.97362 11.0725 10.1856C10.8048 10.5017 10.3316 10.5411 10.0154 10.2735C9.69928 10.0058 9.65993 9.5326 9.92755 9.21644C10.3257 8.74604 10.8713 8.42421 11.4757 8.3033Z" fill="#28222A"/>
</svg>
