<svg width="22" height="22" viewBox="0 0 22 22" fill="none" xmlns="http://www.w3.org/2000/svg">
<path d="M20.4499 6.81051L13.5724 1.30852C12.2284 0.23752 10.1284 0.22702 8.79487 1.29802L1.91738 6.81051C0.930379 7.59801 0.331879 9.17301 0.541879 10.412L1.86488 18.329C2.16938 20.1035 3.81788 21.5 5.61337 21.5H16.7434C18.5179 21.5 20.1979 20.072 20.5024 18.3185L21.8254 10.4015C22.0144 9.17301 21.4159 7.59801 20.4499 6.81051ZM11.9659 17.3C11.9659 17.7305 11.6089 18.0875 11.1784 18.0875C10.7479 18.0875 10.3909 17.7305 10.3909 17.3V14.15C10.3909 13.7195 10.7479 13.3625 11.1784 13.3625C11.6089 13.3625 11.9659 13.7195 11.9659 14.15V17.3Z" fill="#9219C7"/>
</svg>
