<svg width="22" height="22" viewBox="0 0 22 22" fill="none" xmlns="http://www.w3.org/2000/svg">
<path d="M11.1861 17.7143C10.7788 17.7143 10.4409 17.3765 10.4409 16.9691V13.9883C10.4409 13.5809 10.7788 13.2431 11.1861 13.2431C11.5935 13.2431 11.9313 13.5809 11.9313 13.9883V16.9691C11.9313 17.3765 11.5935 17.7143 11.1861 17.7143Z" fill="#BFB6C3"/>
<path d="M16.7504 21.5H5.62191C3.81354 21.5 2.16414 20.1089 1.86606 18.3304L0.544557 10.4113C0.325962 9.17921 0.932066 7.59937 1.91574 6.81442L8.80147 1.29987C10.1329 0.226774 12.2294 0.23671 13.5708 1.30981L20.4565 6.81442C21.4303 7.59937 22.0264 9.17921 21.8277 10.4113L20.5062 18.3204C20.2081 20.0791 18.519 21.5 16.7504 21.5ZM11.1762 1.9954C10.6496 1.9954 10.123 2.15438 9.73547 2.4624L2.84974 7.98688C2.29331 8.43401 1.89587 9.46736 2.0151 10.1728L3.33661 18.082C3.51546 19.1253 4.55875 20.0096 5.62191 20.0096H16.7504C17.8135 20.0096 18.8568 19.1253 19.0357 18.072L20.3572 10.1629C20.4665 9.46736 20.069 8.41413 19.5225 7.97694L12.6368 2.47234C12.2394 2.15438 11.7028 1.9954 11.1762 1.9954Z" fill="#BFB6C3"/>
</svg>
