<svg width="20" height="20" viewBox="0 0 20 20" fill="none" xmlns="http://www.w3.org/2000/svg">
<path fill-rule="evenodd" clip-rule="evenodd" d="M11.7094 2.60852C12.624 2.91914 13.2501 3.92073 13.0469 4.88669L12.68 7.23491C12.6669 7.33161 12.6953 7.38189 12.7177 7.40724C12.7445 7.43757 12.7892 7.46189 12.8496 7.46189H15.811C16.5224 7.46189 17.151 7.75049 17.5341 8.27036C17.9185 8.79202 18.0024 9.47514 17.7636 10.1504L15.995 15.5301C15.841 16.1206 15.4544 16.6082 14.9949 16.9445C14.5302 17.2845 13.9504 17.5 13.3679 17.5H10.5545C10.2767 17.5 9.94575 17.4549 9.63715 17.3667C9.35427 17.2859 9.01818 17.1488 8.76995 16.9159L7.18561 15.6893C7.1024 15.8864 6.98355 16.0655 6.81834 16.218C6.415 16.5903 5.86045 16.6856 5.29799 16.6856H4.55763C3.99517 16.6856 3.44062 16.5903 3.03728 16.218C2.6226 15.8352 2.5 15.2853 2.5 14.702V7.44653C2.5 6.86327 2.6226 6.31336 3.03728 5.93058C3.44062 5.55827 3.99517 5.46293 4.55763 5.46293H5.29799C5.86045 5.46293 6.415 5.55827 6.81834 5.93058C7.01836 6.11521 7.15042 6.33872 7.23355 6.5861L9.40816 3.3507C9.40838 3.35037 9.4086 3.35005 9.40881 3.34972C9.64087 3.00222 10.0145 2.75002 10.404 2.61614C10.7948 2.48181 11.2647 2.44495 11.7094 2.60852ZM7.35562 8.4729V14.3617L9.52992 16.0451L9.55578 16.0709C9.60127 16.1164 9.73036 16.1934 9.95414 16.2573C10.1638 16.3172 10.3881 16.3462 10.5545 16.3462H13.3679C13.6738 16.3462 14.0194 16.2285 14.3135 16.0133C14.6073 15.7984 14.8091 15.5165 14.8812 15.2284L14.8862 15.2081L16.6719 9.7766L16.6744 9.7697C16.8025 9.41088 16.7377 9.1346 16.6052 8.95482C16.47 8.77135 16.2102 8.61574 15.811 8.61574H12.8496C12.0644 8.61574 11.413 7.94448 11.5381 7.0688L11.5392 7.06132L11.9123 4.67404L11.9162 4.6561C11.9956 4.299 11.7409 3.83524 11.3345 3.69979L11.3244 3.69641L11.3144 3.69266C11.1698 3.63844 10.9776 3.63906 10.7791 3.70731C10.5766 3.7769 10.4324 3.89453 10.3682 3.99074L10.367 3.99255L7.35562 8.4729ZM3.81991 6.77843C3.75336 6.83986 3.65384 6.99329 3.65384 7.44653V14.702C3.65384 15.1553 3.75336 15.3087 3.81991 15.3701C3.89779 15.442 4.0836 15.5318 4.55763 15.5318H5.29799C5.77202 15.5318 5.95783 15.442 6.03571 15.3701C6.10227 15.3087 6.20178 15.1553 6.20178 14.702V7.44653C6.20178 6.99329 6.10226 6.83986 6.03571 6.77843C5.95783 6.70654 5.77202 6.61678 5.29799 6.61678H4.55763C4.0836 6.61678 3.89779 6.70654 3.81991 6.77843Z" fill="#4A404F"/>
</svg>
