<svg width="16" height="10" viewBox="0 0 16 10" fill="none" xmlns="http://www.w3.org/2000/svg">
<path fill-rule="evenodd" clip-rule="evenodd" d="M0.5 5.19396C0.5 2.79102 2.45753 0.833496 4.86047 0.833496H5.90698C6.19596 0.833496 6.43023 1.06777 6.43023 1.35675C6.43023 1.64574 6.19596 1.88001 5.90698 1.88001H4.86047C3.0355 1.88001 1.54651 3.36899 1.54651 5.19396C1.54651 7.01257 3.03612 8.50791 4.86047 8.50791H5.90698C6.19596 8.50791 6.43023 8.74218 6.43023 9.03117C6.43023 9.32016 6.19596 9.55443 5.90698 9.55443H4.86047C2.45691 9.55443 0.5 7.58931 0.5 5.19396ZM9.56279 1.35675C9.56279 1.06777 9.79706 0.833496 10.086 0.833496H11.1395C13.5431 0.833496 15.5 2.79862 15.5 5.19396C15.5 7.59752 13.5349 9.55443 11.1395 9.55443H10.086C9.79706 9.55443 9.56279 9.32016 9.56279 9.03117C9.56279 8.74218 9.79706 8.50791 10.086 8.50791H11.1395C12.9581 8.50791 14.4535 7.01831 14.4535 5.19396C14.4535 3.37535 12.9639 1.88001 11.1395 1.88001H10.086C9.79706 1.88001 9.56279 1.64574 9.56279 1.35675ZM4.68605 5.19396C4.68605 4.90497 4.92032 4.67071 5.2093 4.67071H10.7907C11.0797 4.67071 11.314 4.90497 11.314 5.19396C11.314 5.48295 11.0797 5.71722 10.7907 5.71722H5.2093C4.92032 5.71722 4.68605 5.48295 4.68605 5.19396Z" fill="#500E6D"/>
</svg>
