<svg width="14" height="16" viewBox="0 0 14 16" fill="none" xmlns="http://www.w3.org/2000/svg">
<path d="M6.87215 9.50976C5.38679 9.50976 4.1734 8.30335 4.1734 6.81102C4.1734 5.31869 5.38679 4.11925 6.87215 4.11925C8.3575 4.11925 9.57089 5.32566 9.57089 6.81799C9.57089 8.31032 8.3575 9.50976 6.87215 9.50976ZM6.87215 5.16527C5.96559 5.16527 5.21943 5.90446 5.21943 6.81799C5.21943 7.73152 5.95862 8.47071 6.87215 8.47071C7.78568 8.47071 8.52487 7.73152 8.52487 6.81799C8.52487 5.90446 7.7787 5.16527 6.87215 5.16527Z" fill="#9219C7"/>
<path d="M6.87214 15.5C5.84007 15.5 4.80101 15.1095 3.99209 14.3354C1.93491 12.355 -0.338455 9.19596 0.519286 5.43724C1.29334 2.0272 4.27103 0.5 6.87214 0.5C6.87214 0.5 6.87214 0.5 6.87912 0.5C9.48023 0.5 12.4579 2.0272 13.232 5.44421C14.0827 9.20293 11.8094 12.355 9.7522 14.3354C8.94327 15.1095 7.90422 15.5 6.87214 15.5ZM6.87214 1.54603C4.84286 1.54603 2.23477 2.62692 1.54439 5.66736C0.791252 8.95188 2.85541 11.7831 4.72431 13.5753C5.93072 14.7399 7.82054 14.7399 9.02696 13.5753C10.8889 11.7831 12.953 8.95188 12.2138 5.66736C11.5165 2.62692 8.90143 1.54603 6.87214 1.54603Z" fill="#9219C7"/>
</svg>
