<svg width="30" height="30" viewBox="0 0 30 30" fill="none" xmlns="http://www.w3.org/2000/svg">
<g filter="url(#filter0_f_419_4195)">
<circle cx="15" cy="15" r="4" fill="#E21E2C"/>
</g>
<path d="M21.0551 12.7266C20.9596 18.2229 16.9171 22.2845 15.243 23.7339C14.832 24.0897 14.2229 24.0882 13.812 23.7324C12.1167 22.2642 8 18.1232 8 12.5284C8 8.92637 10.9174 6.00557 14.5181 6.00001C18.1904 5.99436 21.1189 9.05491 21.0551 12.7266Z" fill="#E21E2C"/>
<path d="M14.5284 17.1608C17.1106 17.1608 19.2039 15.0675 19.2039 12.4853C19.2039 9.90313 17.1106 7.80986 14.5284 7.80986C11.9462 7.80986 9.85295 9.90313 9.85295 12.4853C9.85295 15.0675 11.9462 17.1608 14.5284 17.1608Z" fill="white"/>
<path d="M18.136 9.51155C17.3281 8.84579 16.2926 8.44546 15.164 8.44546C12.5819 8.44546 10.4885 10.5389 10.4885 13.1209C10.4885 14.2495 10.8889 15.285 11.5546 16.093C10.5153 15.2354 9.85295 13.9375 9.85295 12.4853C9.85295 9.90313 11.9462 7.80986 14.5284 7.80986C15.9806 7.80986 17.2785 8.47218 18.136 9.51155Z" fill="#EFEFEF"/>
<path d="M21.0551 12.7266C20.9596 18.2229 16.9171 22.2845 15.243 23.7339C14.832 24.0897 14.2229 24.0882 13.812 23.7324C13.0208 23.0472 11.7029 21.7802 10.5217 20.0557C11.6188 20.5133 13.5545 21.0912 15.4333 20.5219C18.202 19.6829 22.4409 13.2489 18.8074 7.62112C20.2152 8.86259 21.0904 10.7017 21.0551 12.7266Z" fill="#BC1D30"/>
<path d="M13.446 6.53366C12.5976 6.66694 10.2464 7.26906 9.26866 9.90248C9.15921 10.1973 9.55729 10.4078 9.73668 10.1495C10.4838 9.07387 11.7309 7.76918 13.5351 7.40971C13.6572 7.38541 13.7448 7.27768 13.7468 7.15332L13.7527 6.80169C13.7555 6.63665 13.609 6.50806 13.446 6.53366Z" fill="#FF5C70"/>
<defs>
<filter id="filter0_f_419_4195" x="0" y="0" width="30" height="30" filterUnits="userSpaceOnUse" color-interpolation-filters="sRGB">
<feFlood flood-opacity="0" result="BackgroundImageFix"/>
<feBlend mode="normal" in="SourceGraphic" in2="BackgroundImageFix" result="shape"/>
<feGaussianBlur stdDeviation="5.5" result="effect1_foregroundBlur_419_4195"/>
</filter>
</defs>
</svg>
