<svg width="16" height="18" viewBox="0 0 16 18" fill="none" xmlns="http://www.w3.org/2000/svg">
<path d="M7.84657 10.8117C6.06414 10.8117 4.60807 9.36402 4.60807 7.57322C4.60807 5.78243 6.06414 4.3431 7.84657 4.3431C9.62899 4.3431 11.0851 5.7908 11.0851 7.58159C11.0851 9.37239 9.62899 10.8117 7.84657 10.8117ZM7.84657 5.59833C6.7587 5.59833 5.8633 6.48536 5.8633 7.58159C5.8633 8.67782 6.75033 9.56485 7.84657 9.56485C8.9428 9.56485 9.82983 8.67782 9.82983 7.58159C9.82983 6.48536 8.93443 5.59833 7.84657 5.59833Z" fill="#A294A8"/>
<path d="M7.84656 18C6.60807 18 5.36121 17.5314 4.39049 16.6025C1.92188 14.2259 -0.806158 10.4351 0.223131 5.92469C1.152 1.83264 4.72522 0 7.84656 0C7.84656 0 7.84656 0 7.85493 0C10.9763 0 14.5495 1.83264 15.4784 5.93305C16.4993 10.4435 13.7712 14.2259 11.3026 16.6025C10.3319 17.5314 9.08506 18 7.84656 18ZM7.84656 1.25523C5.41142 1.25523 2.28171 2.5523 1.45326 6.20084C0.54949 10.1423 3.02648 13.5397 5.26916 15.6904C6.71685 17.0879 8.98464 17.0879 10.4323 15.6904C12.6666 13.5397 15.1436 10.1423 14.2566 6.20084C13.4198 2.5523 10.2817 1.25523 7.84656 1.25523Z" fill="#A294A8"/>
</svg>
