<svg width="18" height="18" viewBox="0 0 18 18" fill="none" xmlns="http://www.w3.org/2000/svg">
<path d="M11.8196 18H11.7057C7.81475 18 5.93939 16.4664 5.61514 13.0312C5.58009 12.6719 5.84299 12.3476 6.21105 12.3126C6.56159 12.2775 6.8946 12.5492 6.92965 12.9085C7.18379 15.6602 8.48077 16.6855 11.7145 16.6855H11.8284C15.3951 16.6855 16.657 15.4236 16.657 11.8569V6.14314C16.657 2.57644 15.3951 1.31451 11.8284 1.31451H11.7145C8.46324 1.31451 7.16626 2.35735 6.92965 5.16164C6.88583 5.52093 6.57911 5.7926 6.21105 5.75755C5.84299 5.73126 5.58009 5.40701 5.60638 5.04771C5.90433 1.55988 7.78846 0 11.7057 0H11.8196C16.1224 0 17.9628 1.84031 17.9628 6.14314V11.8569C17.9628 16.1597 16.1224 18 11.8196 18Z" fill="#FF1717"/>
<path d="M11.6093 9.65725H1.63656C1.27726 9.65725 0.979308 9.3593 0.979308 9C0.979308 8.6407 1.27726 8.34275 1.63656 8.34275H11.6093C11.9686 8.34275 12.2666 8.6407 12.2666 9C12.2666 9.3593 11.9686 9.65725 11.6093 9.65725Z" fill="#FF1717"/>
<path d="M3.5908 12.593C3.42429 12.593 3.25779 12.5316 3.12634 12.4002L0.190604 9.46446C-0.0635346 9.21032 -0.0635346 8.78968 0.190604 8.53554L3.12634 5.5998C3.38048 5.34567 3.80112 5.34567 4.05526 5.5998C4.3094 5.85394 4.3094 6.27459 4.05526 6.52872L1.58398 9L4.05526 11.4713C4.3094 11.7254 4.3094 12.1461 4.05526 12.4002C3.93257 12.5316 3.7573 12.593 3.5908 12.593Z" fill="#FF1717"/>
</svg>
