<svg width="130" height="40" viewBox="0 0 130 40" fill="none" xmlns="http://www.w3.org/2000/svg">
<path d="M16.4117 16.7257C15.4769 17.7215 14.7344 18.8913 14.2103 20.1668C13.4705 19.1647 12.2748 18.5138 10.9256 18.5138C8.67955 18.5138 6.85878 20.3176 6.85878 22.5426C6.85878 24.7677 8.67955 26.5714 10.9256 26.5714C13.1716 26.5714 14.9924 24.7677 14.9924 22.5426C14.9924 22.3232 15.0036 22.1026 15.0617 21.8911C15.5538 20.1009 16.4993 18.4891 17.8034 17.2548C19.5414 15.6099 21.7856 14.7595 24.0787 14.8766C25.8048 14.9648 27.4609 15.5962 28.8585 16.6775C29.019 16.813 29.1745 16.9552 29.3248 17.1038C30.8432 18.6052 31.6962 20.6417 31.6962 22.765C31.6962 26.0796 29.1413 29.5526 24.1395 33.2621C23.9838 33.3776 23.7944 33.4401 23.5998 33.4401C23.4051 33.4401 23.2157 33.3776 23.06 33.2621C21.0316 31.7578 19.4057 30.2924 18.1893 28.8607C19.2034 27.819 20.0033 26.5765 20.556 25.2147C21.3011 26.0469 22.3886 26.5714 23.5998 26.5714C25.8458 26.5714 27.6666 24.7677 27.6666 22.5426C27.6666 20.3176 25.8458 18.5138 23.5998 18.5138C21.3537 18.5138 19.5329 20.3176 19.5329 22.5426C19.5329 22.9484 19.5935 23.3402 19.7061 23.7095C18.9119 25.2147 18.3443 26.2702 17.3808 27.766L17.3481 27.7849C17.3808 27.766 17.3845 27.766 17.3481 27.7849C16.0842 29.5565 14.1755 31.3788 11.6362 33.2621C11.4804 33.3776 11.291 33.4401 11.0964 33.4401C10.9018 33.4401 10.7124 33.3776 10.5566 33.2621C5.55484 29.5526 2.99997 26.0796 2.99997 22.765C2.99997 20.6417 3.85298 18.6052 5.37136 17.1038C6.88974 15.6023 8.94909 14.7588 11.0964 14.7588C13.0562 14.7588 14.9428 15.4614 16.4117 16.7257Z" fill="#AD2EE5"/>
<path d="M27.0293 9.93412C27.0293 11.7976 25.5044 13.3082 23.6234 13.3082C21.7424 13.3082 20.2175 11.7976 20.2175 9.93412C20.2175 8.07068 21.7424 6.56006 23.6234 6.56006C25.5044 6.56006 27.0293 8.07068 27.0293 9.93412Z" fill="#AD2EE5"/>
<path d="M14.314 9.93412C14.314 11.7976 12.7891 13.3082 10.9081 13.3082C9.02708 13.3082 7.50221 11.7976 7.50221 9.93412C7.50221 8.07068 9.02708 6.56006 10.9081 6.56006C12.7891 6.56006 14.314 8.07068 14.314 9.93412Z" fill="#AD2EE5"/>
<path d="M43.2742 27.1848C41.1177 27.1848 39.4726 26.655 38.3388 25.5952C37.2051 24.5354 36.6383 23.0382 36.6383 21.1035C36.6383 19.1072 37.1928 17.5791 38.3019 16.5194C39.4109 15.4473 41.0622 14.9112 43.2557 14.9112C43.9951 14.9112 44.6543 14.9667 45.2335 15.0776C45.8127 15.1885 46.3672 15.3425 46.8971 15.5397V18.5711C45.8373 18.1029 44.7036 17.8687 43.496 17.8687C42.3746 17.8687 41.5428 18.1275 41.0006 18.6451C40.4584 19.1503 40.1873 19.9698 40.1873 21.1035C40.1873 22.2125 40.4707 23.0135 41.0376 23.5065C41.6167 23.987 42.4485 24.2273 43.533 24.2273C44.1245 24.2273 44.6975 24.1719 45.252 24.061C45.8189 23.9501 46.3796 23.7776 46.9341 23.5434V26.5933C46.4042 26.7782 45.8435 26.9199 45.252 27.0185C44.6728 27.1294 44.0136 27.1848 43.2742 27.1848ZM48.2358 27V14.5415H51.7109V18.7745C52.0189 18.565 52.4009 18.3924 52.8569 18.2569C53.3252 18.1213 53.8242 18.0536 54.3541 18.0536C55.5618 18.0536 56.4429 18.337 56.9974 18.9038C57.5519 19.4584 57.8292 20.321 57.8292 21.4917V27H54.3356V21.7504C54.3356 21.3438 54.2494 21.0542 54.0769 20.8817C53.9167 20.7092 53.6209 20.6229 53.1896 20.6229C52.9308 20.6229 52.6597 20.6845 52.3763 20.8077C52.1052 20.931 51.8834 21.0788 51.7109 21.2514V27H48.2358ZM64.1075 27.1848C63.0847 27.1848 62.179 27.0185 61.3903 26.6858C60.614 26.3407 60.004 25.8293 59.5604 25.1516C59.1291 24.4738 58.9134 23.6358 58.9134 22.6377C58.9134 21.2452 59.3077 20.1361 60.0964 19.3105C60.8851 18.4725 62.0619 18.0536 63.6269 18.0536C65.0564 18.0536 66.1716 18.4171 66.9726 19.1441C67.7859 19.8712 68.1926 20.8632 68.1926 22.1201V23.6543H62.1112C62.2714 24.1226 62.5856 24.4553 63.0539 24.6525C63.5222 24.8497 64.1568 24.9482 64.9578 24.9482C65.463 24.9482 65.9683 24.9051 66.4735 24.8188C66.9911 24.7203 67.4039 24.6094 67.712 24.4861V26.5749C66.8494 26.9815 65.6479 27.1848 64.1075 27.1848ZM62.1112 21.7689H65.1981V21.4547C65.1981 21.1096 65.0872 20.8262 64.8654 20.6044C64.6559 20.3826 64.28 20.2717 63.7378 20.2717C63.134 20.2717 62.7089 20.4011 62.4624 20.6599C62.2283 20.9063 62.1112 21.276 62.1112 21.7689ZM74.2694 27.1848C72.6798 27.1848 71.4228 26.809 70.4986 26.0573C69.5744 25.2933 69.1123 24.1472 69.1123 22.6192C69.1123 21.5841 69.328 20.7276 69.7593 20.0499C70.1906 19.3721 70.7944 18.873 71.5707 18.5526C72.3471 18.2199 73.2528 18.0536 74.2879 18.0536C74.941 18.0536 75.5264 18.1029 76.0439 18.2014C76.5615 18.2877 77.0544 18.4417 77.5227 18.6635V21.1035C76.7956 20.7584 75.97 20.5859 75.0458 20.5859C74.2571 20.5859 73.6595 20.7338 73.2528 21.0295C72.8585 21.3253 72.6613 21.8552 72.6613 22.6192C72.6613 23.3339 72.8523 23.8515 73.2343 24.1719C73.6163 24.4923 74.2202 24.6525 75.0458 24.6525C75.4894 24.6525 75.9207 24.6032 76.3397 24.5046C76.7587 24.3937 77.1592 24.2397 77.5412 24.0425V26.5933C77.0729 26.8028 76.5677 26.9507 76.0255 27.037C75.4956 27.1356 74.9102 27.1848 74.2694 27.1848ZM78.8325 27V14.5415H82.3075V20.6968L84.7475 18.2384H88.6847L85.1911 21.9353L88.888 27H85.1911L83.0284 23.7467L82.3075 24.4676V27H78.8325ZM93.7114 27.1848C92.6886 27.1848 91.7829 27.0185 90.9942 26.6858C90.2178 26.3407 89.6079 25.8293 89.1642 25.1516C88.7329 24.4738 88.5173 23.6358 88.5173 22.6377C88.5173 21.2452 88.9116 20.1361 89.7003 19.3105C90.489 18.4725 91.6658 18.0536 93.2308 18.0536C94.6603 18.0536 95.7755 18.4171 96.5765 19.1441C97.3898 19.8712 97.7964 20.8632 97.7964 22.1201V23.6543H91.7151C91.8753 24.1226 92.1895 24.4553 92.6578 24.6525C93.1261 24.8497 93.7607 24.9482 94.5617 24.9482C95.0669 24.9482 95.5722 24.9051 96.0774 24.8188C96.595 24.7203 97.0078 24.6094 97.3158 24.4861V26.5749C96.4532 26.9815 95.2518 27.1848 93.7114 27.1848ZM91.7151 21.7689H94.802V21.4547C94.802 21.1096 94.6911 20.8262 94.4693 20.6044C94.2598 20.3826 93.8839 20.2717 93.3417 20.2717C92.7379 20.2717 92.3127 20.4011 92.0663 20.6599C91.8321 20.9063 91.7151 21.276 91.7151 21.7689ZM102.801 27.1848C101.976 27.1848 101.255 27.0493 100.639 26.7782C100.035 26.4948 99.5603 26.0388 99.2153 25.4103C98.8825 24.7819 98.7162 23.9439 98.7162 22.8965C98.7162 21.8244 98.9072 20.931 99.2892 20.2162C99.6712 19.5015 100.183 18.9655 100.823 18.6081C101.464 18.2384 102.16 18.0536 102.912 18.0536C103.319 18.0536 103.719 18.0967 104.114 18.183C104.52 18.2692 104.871 18.3924 105.167 18.5526V14.5415H108.642V27H105.629L105.463 26.3161C105.118 26.5872 104.73 26.8028 104.298 26.963C103.879 27.1109 103.38 27.1848 102.801 27.1848ZM103.799 24.671C104.329 24.671 104.785 24.4923 105.167 24.1349V21.0295C104.822 20.7215 104.366 20.5674 103.799 20.5674C103.343 20.5674 102.974 20.7708 102.69 21.1774C102.407 21.5841 102.265 22.1633 102.265 22.915C102.265 23.6543 102.388 24.1349 102.635 24.3567C102.881 24.5662 103.27 24.671 103.799 24.671ZM110.314 27V15.0961H113.789V27H110.314ZM115.458 27V18.2384H118.712L118.804 18.9038C119.137 18.682 119.574 18.4849 120.116 18.3123C120.671 18.1398 121.262 18.0536 121.891 18.0536C122.988 18.0536 123.789 18.3247 124.294 18.8669C124.799 19.4091 125.052 20.247 125.052 21.3807V27H121.577V21.732C121.577 21.3376 121.49 21.0542 121.318 20.8817C121.145 20.7092 120.843 20.6229 120.412 20.6229C120.153 20.6229 119.882 20.6845 119.599 20.8077C119.328 20.931 119.106 21.0788 118.933 21.2514V27H115.458Z" fill="#AD2EE5"/>
</svg>
