<svg width="40" height="40" viewBox="0 0 40 40" fill="none" xmlns="http://www.w3.org/2000/svg">
<rect width="40" height="40" rx="10" fill="white"/>
<path d="M20.2 14.6C19.7226 14.6 19.2648 14.4104 18.9272 14.0728C18.5896 13.7352 18.4 13.2774 18.4 12.8C18.4 12.3226 18.5896 11.8648 18.9272 11.5272C19.2648 11.1896 19.7226 11 20.2 11C20.6774 11 21.1352 11.1896 21.4728 11.5272C21.8104 11.8648 22 12.3226 22 12.8C22 13.2774 21.8104 13.7352 21.4728 14.0728C21.1352 14.4104 20.6774 14.6 20.2 14.6ZM20.2 21.8C19.7226 21.8 19.2648 21.6104 18.9272 21.2728C18.5896 20.9352 18.4 20.4774 18.4 20C18.4 19.5226 18.5896 19.0648 18.9272 18.7272C19.2648 18.3896 19.7226 18.2 20.2 18.2C20.6774 18.2 21.1352 18.3896 21.4728 18.7272C21.8104 19.0648 22 19.5226 22 20C22 20.4774 21.8104 20.9352 21.4728 21.2728C21.1352 21.6104 20.6774 21.8 20.2 21.8ZM20.2 29C19.7226 29 19.2648 28.8104 18.9272 28.4728C18.5896 28.1352 18.4 27.6774 18.4 27.2C18.4 26.7226 18.5896 26.2648 18.9272 25.9272C19.2648 25.5896 19.7226 25.4 20.2 25.4C20.6774 25.4 21.1352 25.5896 21.4728 25.9272C21.8104 26.2648 22 26.7226 22 27.2C22 27.6774 21.8104 28.1352 21.4728 28.4728C21.1352 28.8104 20.6774 29 20.2 29Z" fill="#28222A"/>
</svg>
