<svg width="20" height="20" viewBox="0 0 20 20" fill="none" xmlns="http://www.w3.org/2000/svg">
<path fill-rule="evenodd" clip-rule="evenodd" d="M7.71234 3.55584C6.2731 3.55584 5.11497 4.71946 5.11497 6.15321C5.11497 7.54905 6.20536 8.68159 7.58204 8.74274C7.66553 8.73693 7.75373 8.73665 7.83693 8.74268C9.21226 8.68089 10.3033 7.5491 10.3097 6.15214C10.3091 4.71965 9.14496 3.55584 7.71234 3.55584ZM4.05913 6.15321C4.05913 4.13788 5.68842 2.5 7.71234 2.5C9.72845 2.5 11.3656 4.13711 11.3656 6.15321L11.3656 6.15541C11.3573 8.1266 9.80358 9.73318 7.8427 9.79909C7.81925 9.79988 7.79578 9.7991 7.77243 9.79677C7.73849 9.79338 7.68777 9.79292 7.64047 9.79722C7.61869 9.7992 7.59681 9.79983 7.57494 9.79909C5.61445 9.73319 4.05913 8.1265 4.05913 6.15321Z" fill="white"/>
<path fill-rule="evenodd" clip-rule="evenodd" d="M12.4003 4.43571C12.4003 4.14415 12.6366 3.90779 12.9282 3.90779C14.5863 3.90779 15.9198 5.25025 15.9198 6.89934C15.9198 8.5151 14.6379 9.83069 13.0395 9.89053C13.011 9.89159 12.9825 9.89035 12.9542 9.88682C12.9437 9.8855 12.9222 9.88465 12.895 9.88767C12.6052 9.91987 12.3442 9.71105 12.312 9.42127C12.2798 9.13149 12.4886 8.87048 12.7784 8.83828C12.8613 8.82907 12.9481 8.82694 13.0338 8.83386C14.0521 8.77804 14.8639 7.93287 14.8639 6.89934C14.8639 5.83141 14.0012 4.96363 12.9282 4.96363C12.6366 4.96363 12.4003 4.72727 12.4003 4.43571Z" fill="white"/>
<path fill-rule="evenodd" clip-rule="evenodd" d="M7.83376 10.3748C9.19101 10.3748 10.5751 10.7155 11.6447 11.4298C12.6061 12.0698 13.157 12.9668 13.157 13.9321C13.157 14.8974 12.6062 15.796 11.6452 16.4394C10.5723 17.1573 9.18636 17.5 7.82848 17.5C6.47088 17.5 5.08534 17.1575 4.01254 16.4399C3.05094 15.8 2.5 14.9028 2.5 13.9374C2.5 12.9721 3.05076 12.0735 4.01182 11.4301L4.01375 11.4288C5.08961 10.7155 6.47635 10.3748 7.83376 10.3748ZM4.59819 12.3082C3.85654 12.805 3.55584 13.4054 3.55584 13.9374C3.55584 14.4693 3.85641 15.0679 4.59791 15.5612L4.59907 15.5619C5.46189 16.1392 6.63122 16.4442 7.82848 16.4442C9.0257 16.4442 10.195 16.1393 11.0578 15.562C11.8002 15.0651 12.1011 14.4644 12.1011 13.9321C12.1011 13.4002 11.8006 12.8017 11.0591 12.3084L11.0583 12.3079C10.1992 11.7341 9.03165 11.4307 7.83376 11.4307C6.63649 11.4307 5.46499 11.7338 4.59819 12.3082Z" fill="white"/>
<path fill-rule="evenodd" clip-rule="evenodd" d="M13.7928 11.3586C13.8569 11.0742 14.1395 10.8956 14.4239 10.9597C14.9796 11.0849 15.5249 11.3083 15.9849 11.659C16.6473 12.1566 17.0178 12.8501 17.0178 13.5828C17.0178 14.3154 16.6476 15.0086 15.9855 15.5062C15.5199 15.863 14.9662 16.0957 14.3944 16.2149C14.109 16.2743 13.8294 16.0911 13.7699 15.8057C13.7104 15.5203 13.8936 15.2407 14.179 15.1812C14.6199 15.0894 15.0226 14.9144 15.3448 14.6669L15.3496 14.6633C15.7841 14.3374 15.962 13.9404 15.962 13.5828C15.962 13.2252 15.7841 12.8282 15.3496 12.5023L15.3459 12.4996C15.0321 12.2599 14.6349 12.0895 14.1918 11.9897C13.9073 11.9256 13.7287 11.643 13.7928 11.3586Z" fill="white"/>
</svg>
