<svg width="24" height="24" viewBox="0 0 24 24" fill="none" xmlns="http://www.w3.org/2000/svg">
<path d="M8.69543 20C8.51863 20 8.34184 19.9354 8.20226 19.797C7.93242 19.5293 7.93242 19.0864 8.20226 18.8187L14.2691 12.8017C14.7158 12.3588 14.7158 11.6389 14.2691 11.196L8.20226 5.17895C7.93242 4.91132 7.93242 4.46835 8.20226 4.20072C8.47211 3.93309 8.91875 3.93309 9.1886 4.20072L15.2555 10.2177C15.73 10.6884 15.9999 11.3252 15.9999 11.9988C15.9999 12.6725 15.7393 13.3093 15.2555 13.78L9.1886 19.797C9.04902 19.9262 8.87222 20 8.69543 20Z" fill="#85738C"/>
</svg>
