<svg width="20" height="20" viewBox="0 0 20 20" fill="none" xmlns="http://www.w3.org/2000/svg">
<path d="M11.9715 15.2257C11.8175 15.2257 11.6634 15.1689 11.5418 15.0473C11.3066 14.8121 11.3066 14.4229 11.5418 14.1877L16.0343 9.6952L11.5418 5.2027C11.3066 4.96753 11.3066 4.57829 11.5418 4.34312C11.7769 4.10796 12.1662 4.10796 12.4013 4.34312L17.3236 9.26541C17.5588 9.50058 17.5588 9.88982 17.3236 10.125L12.4013 15.0473C12.2797 15.1689 12.1256 15.2257 11.9715 15.2257Z" fill="#8360E5"/>
<path d="M16.756 10.3034H3.10819C2.77571 10.3034 2.5 10.0277 2.5 9.6952C2.5 9.36272 2.77571 9.08701 3.10819 9.08701H16.756C17.0885 9.08701 17.3642 9.36272 17.3642 9.6952C17.3642 10.0277 17.0885 10.3034 16.756 10.3034Z" fill="#8360E5"/>
</svg>
