<svg width="24" height="24" viewBox="0 0 24 24" fill="none" xmlns="http://www.w3.org/2000/svg">
<path d="M12.0188 10.7119C11.6781 10.7119 11.3955 10.4294 11.3955 10.0886V7.32133C11.3955 6.98061 11.6781 6.69806 12.0188 6.69806C12.3595 6.69806 12.6421 6.98061 12.6421 7.32133V10.0886C12.6421 10.4377 12.3595 10.7119 12.0188 10.7119Z" fill="#28222A"/>
<path d="M12.0354 18.8809C9.89137 18.8809 7.75564 18.5402 5.71962 17.8587C4.96339 17.6094 4.38998 17.0693 4.14068 16.3878C3.89137 15.7064 3.97447 14.9252 4.38167 14.2438L5.43708 12.482C5.66976 12.0914 5.87752 11.3601 5.87752 10.903V9.15789C5.87752 5.759 8.63652 3 12.0354 3C15.4343 3 18.1933 5.759 18.1933 9.15789V10.903C18.1933 11.3518 18.4011 12.0914 18.6338 12.482L19.6892 14.2438C20.0797 14.892 20.1462 15.6648 19.8886 16.3712C19.631 17.0776 19.0659 17.6177 18.3512 17.8587C16.3152 18.5485 14.1795 18.8809 12.0354 18.8809ZM12.0354 4.25485C9.32627 4.25485 7.12406 6.45706 7.12406 9.1662V10.9114C7.12406 11.5845 6.85813 12.5568 6.5091 13.1302L5.4537 14.9003C5.23763 15.2576 5.18777 15.6399 5.31242 15.9723C5.43708 16.3047 5.71962 16.554 6.11852 16.687C9.94123 17.9584 14.1462 17.9584 17.9689 16.687C18.3263 16.5706 18.6005 16.3047 18.7252 15.9557C18.8581 15.6066 18.8166 15.2244 18.6254 14.9003L17.57 13.1385C17.221 12.5651 16.9551 11.5928 16.9551 10.9197V9.17452C16.9468 6.45706 14.7446 4.25485 12.0354 4.25485Z" fill="#28222A"/>
<path d="M12.0188 21C11.1296 21 10.257 20.6343 9.62544 20.0028C8.99386 19.3712 8.62821 18.4986 8.62821 17.6094H9.87475C9.87475 18.1745 10.1074 18.723 10.5063 19.1219C10.9052 19.5208 11.4537 19.7535 12.0188 19.7535C13.1988 19.7535 14.1628 18.7895 14.1628 17.6094H15.4094C15.4094 19.4792 13.8886 21 12.0188 21Z" fill="#28222A"/>
</svg>
