<svg width="40" height="40" viewBox="0 0 40 40" fill="none" xmlns="http://www.w3.org/2000/svg">
<rect width="40" height="40" rx="10" fill="#F0F0F0"/>
<path d="M20.0188 18.7119C19.6781 18.7119 19.3955 18.4294 19.3955 18.0886V15.3213C19.3955 14.9806 19.6781 14.6981 20.0188 14.6981C20.3595 14.6981 20.6421 14.9806 20.6421 15.3213V18.0886C20.6421 18.4377 20.3595 18.7119 20.0188 18.7119Z" fill="#28222A"/>
<path d="M20.0354 26.8809C17.8914 26.8809 15.7556 26.5402 13.7196 25.8587C12.9634 25.6094 12.39 25.0693 12.1407 24.3878C11.8914 23.7064 11.9745 22.9252 12.3817 22.2438L13.4371 20.482C13.6698 20.0914 13.8775 19.3601 13.8775 18.903V17.1579C13.8775 13.759 16.6365 11 20.0354 11C23.4343 11 26.1933 13.759 26.1933 17.1579V18.903C26.1933 19.3518 26.4011 20.0914 26.6338 20.482L27.6892 22.2438C28.0797 22.892 28.1462 23.6648 27.8886 24.3712C27.631 25.0776 27.0659 25.6177 26.3512 25.8587C24.3152 26.5485 22.1795 26.8809 20.0354 26.8809ZM20.0354 12.2548C17.3263 12.2548 15.1241 14.4571 15.1241 17.1662V18.9114C15.1241 19.5845 14.8581 20.5568 14.5091 21.1302L13.4537 22.9003C13.2376 23.2576 13.1878 23.6399 13.3124 23.9723C13.4371 24.3047 13.7196 24.554 14.1185 24.687C17.9412 25.9584 22.1462 25.9584 25.9689 24.687C26.3263 24.5706 26.6005 24.3047 26.7252 23.9557C26.8581 23.6066 26.8166 23.2244 26.6254 22.9003L25.57 21.1385C25.221 20.5651 24.9551 19.5928 24.9551 18.9197V17.1745C24.9468 14.4571 22.7446 12.2548 20.0354 12.2548Z" fill="#28222A"/>
<path d="M20.0188 29C19.1296 29 18.257 28.6343 17.6254 28.0028C16.9939 27.3712 16.6282 26.4986 16.6282 25.6094H17.8747C17.8747 26.1745 18.1074 26.723 18.5063 27.1219C18.9052 27.5208 19.4537 27.7535 20.0188 27.7535C21.1988 27.7535 22.1628 26.7895 22.1628 25.6094H23.4094C23.4094 27.4792 21.8886 29 20.0188 29Z" fill="#28222A"/>
</svg>
