<svg width="16" height="16" viewBox="0 0 16 16" fill="none" xmlns="http://www.w3.org/2000/svg">
<path fill-rule="evenodd" clip-rule="evenodd" d="M5.71234 1.55584C4.2731 1.55584 3.11497 2.71946 3.11497 4.15321C3.11497 5.54905 4.20536 6.68159 5.58204 6.74274C5.66553 6.73693 5.75373 6.73665 5.83693 6.74268C7.21226 6.68089 8.30331 5.5491 8.30971 4.15214C8.30913 2.71965 7.14496 1.55584 5.71234 1.55584ZM2.05913 4.15321C2.05913 2.13788 3.68842 0.5 5.71234 0.5C7.72845 0.5 9.36555 2.13711 9.36555 4.15321L9.36555 4.15541C9.35734 6.1266 7.80358 7.73318 5.8427 7.79909C5.81925 7.79988 5.79578 7.7991 5.77243 7.79677C5.73849 7.79338 5.68777 7.79292 5.64047 7.79722C5.61869 7.7992 5.59681 7.79983 5.57494 7.79909C3.61445 7.73319 2.05913 6.1265 2.05913 4.15321Z" fill="#6A5C70"/>
<path fill-rule="evenodd" clip-rule="evenodd" d="M10.4003 2.43571C10.4003 2.14415 10.6366 1.90779 10.9282 1.90779C12.5863 1.90779 13.9198 3.25025 13.9198 4.89934C13.9198 6.5151 12.6379 7.83069 11.0395 7.89053C11.011 7.89159 10.9825 7.89035 10.9542 7.88682C10.9437 7.8855 10.9222 7.88465 10.895 7.88767C10.6052 7.91987 10.3442 7.71105 10.312 7.42127C10.2798 7.13149 10.4886 6.87048 10.7784 6.83828C10.8613 6.82907 10.9481 6.82694 11.0338 6.83386C12.0521 6.77804 12.8639 5.93287 12.8639 4.89934C12.8639 3.83141 12.0012 2.96363 10.9282 2.96363C10.6366 2.96363 10.4003 2.72727 10.4003 2.43571Z" fill="#6A5C70"/>
<path fill-rule="evenodd" clip-rule="evenodd" d="M5.83376 8.37482C7.19101 8.37482 8.57507 8.71545 9.64469 9.42983C10.6061 10.0698 11.157 10.9668 11.157 11.9321C11.157 12.8974 10.6062 13.796 9.64515 14.4394C8.57227 15.1573 7.18636 15.5 5.82848 15.5C4.47088 15.5 3.08534 15.1575 2.01254 14.4399C1.05094 13.8 0.5 12.9028 0.5 11.9374C0.5 10.9721 1.05076 10.0735 2.01182 9.43014L2.01375 9.42885C3.08961 8.71551 4.47635 8.37482 5.83376 8.37482ZM2.59819 10.3082C1.85654 10.805 1.55584 11.4054 1.55584 11.9374C1.55584 12.4693 1.85641 13.0679 2.59791 13.5612L2.59907 13.5619C3.46189 14.1392 4.63122 14.4442 5.82848 14.4442C7.0257 14.4442 8.19499 14.1393 9.0578 13.562C9.80017 13.0651 10.1011 12.4644 10.1011 11.9321C10.1011 11.4002 9.80056 10.8017 9.05906 10.3084L9.05827 10.3079C8.19922 9.7341 7.03165 9.43067 5.83376 9.43067C4.63649 9.43067 3.46499 9.73382 2.59819 10.3082Z" fill="#6A5C70"/>
<path fill-rule="evenodd" clip-rule="evenodd" d="M11.7928 9.3586C11.8569 9.07417 12.1395 8.89556 12.4239 8.95965C12.9796 9.08488 13.5249 9.30825 13.9849 9.65905C14.6473 10.1566 15.0178 10.8501 15.0178 11.5828C15.0178 12.3154 14.6476 13.0086 13.9855 13.5062C13.5199 13.863 12.9662 14.0957 12.3944 14.2149C12.109 14.2743 11.8294 14.0911 11.7699 13.8057C11.7104 13.5203 11.8936 13.2407 12.179 13.1812C12.6199 13.0894 13.0226 12.9144 13.3448 12.6669L13.3496 12.6633C13.7841 12.3374 13.962 11.9404 13.962 11.5828C13.962 11.2252 13.7841 10.8282 13.3496 10.5023L13.3459 10.4996C13.0321 10.2599 12.6349 10.0895 12.1918 9.98967C11.9073 9.92557 11.7287 9.64303 11.7928 9.3586Z" fill="#6A5C70"/>
</svg>
