<svg width="20" height="20" viewBox="0 0 20 20" fill="none" xmlns="http://www.w3.org/2000/svg">
<path fill-rule="evenodd" clip-rule="evenodd" d="M9.50302 0.438284C9.78677 0.187239 10.2132 0.187239 10.497 0.438284C12.6868 2.3757 15.5449 3.38444 18.4657 3.25078C18.8108 3.23499 19.1221 3.45701 19.2195 3.78848C19.7015 5.42793 19.8489 7.14753 19.6532 8.84511C19.4574 10.5427 18.9224 12.1836 18.0799 13.6703C17.2374 15.157 16.1047 16.4592 14.749 17.4995C13.3933 18.5398 11.8424 19.2969 10.1883 19.726C10.0648 19.758 9.93518 19.758 9.81168 19.726C8.1576 19.2969 6.60663 18.5398 5.25095 17.4995C3.89527 16.4592 2.76254 15.157 1.92007 13.6703C1.07759 12.1836 0.542575 10.5427 0.346801 8.84511C0.151026 7.14753 0.298491 5.42793 0.780433 3.78848C0.877873 3.45701 1.18914 3.23499 1.53427 3.25078C4.45508 3.38444 7.31318 2.3757 9.50302 0.438284ZM2.07263 4.76253C1.76627 6.04085 1.68599 7.36448 1.83692 8.67326C2.00967 10.1711 2.48174 11.619 3.2251 12.9308C3.96846 14.2426 4.96793 15.3916 6.16411 16.3095C7.30872 17.1878 8.61109 17.8374 9.99999 18.2234C11.3889 17.8374 12.6913 17.1878 13.8359 16.3095C15.032 15.3916 16.0315 14.2426 16.7749 12.9308C17.5182 11.619 17.9903 10.1711 18.163 8.67326C18.314 7.36447 18.2337 6.04085 17.9273 4.76253C15.0463 4.75719 12.2515 3.77568 9.99999 1.97935C7.74853 3.77568 4.9537 4.75719 2.07263 4.76253Z" fill="#28222A"/>
<path fill-rule="evenodd" clip-rule="evenodd" d="M8.76255 7.76256C9.09074 7.43438 9.53586 7.25 9.99999 7.25C10.4641 7.25 10.9092 7.43438 11.2374 7.76256C11.5656 8.09075 11.75 8.53587 11.75 9C11.75 9.46413 11.5656 9.90925 11.2374 10.2374C10.9092 10.5656 10.4641 10.75 9.99999 10.75C9.53586 10.75 9.09074 10.5656 8.76255 10.2374C8.43436 9.90925 8.24999 9.46413 8.24999 9C8.24999 8.53587 8.43436 8.09075 8.76255 7.76256ZM9.99999 8.75C9.93368 8.75 9.8701 8.77634 9.82321 8.82322C9.77633 8.87011 9.74999 8.9337 9.74999 9C9.74999 9.0663 9.77633 9.12989 9.82321 9.17678C9.8701 9.22366 9.93368 9.25 9.99999 9.25C10.0663 9.25 10.1299 9.22366 10.1768 9.17678C10.2236 9.12989 10.25 9.0663 10.25 9C10.25 8.9337 10.2236 8.87011 10.1768 8.82322C10.1299 8.77634 10.0663 8.75 9.99999 8.75Z" fill="#28222A"/>
<path fill-rule="evenodd" clip-rule="evenodd" d="M9.99999 9.25C10.4142 9.25 10.75 9.58579 10.75 10V12.5C10.75 12.9142 10.4142 13.25 9.99999 13.25C9.58577 13.25 9.24999 12.9142 9.24999 12.5V10C9.24999 9.58579 9.58577 9.25 9.99999 9.25Z" fill="#28222A"/>
</svg>
