<svg width="15" height="22" viewBox="0 0 15 22" fill="none" xmlns="http://www.w3.org/2000/svg">
<path fill-rule="evenodd" clip-rule="evenodd" d="M7.29728 1.97818C5.28234 1.97818 3.66096 3.60724 3.66096 5.6145C3.66096 7.56867 5.1875 9.15423 7.11486 9.23983C7.23174 9.23171 7.35522 9.23131 7.47171 9.23975C9.39717 9.15324 10.9246 7.56873 10.9336 5.613C10.9328 3.60751 9.30295 1.97818 7.29728 1.97818ZM2.18278 5.6145C2.18278 2.79304 4.46379 0.5 7.29728 0.5C10.1198 0.5 12.4118 2.79195 12.4118 5.6145L12.4118 5.61758C12.4003 8.37723 10.225 10.6265 7.47978 10.7187C7.44695 10.7198 7.41409 10.7187 7.38141 10.7155C7.33389 10.7107 7.26288 10.7101 7.19667 10.7161C7.16617 10.7189 7.13553 10.7198 7.10492 10.7187C4.36023 10.6265 2.18278 8.37709 2.18278 5.6145ZM7.46727 11.5248C9.36742 11.5248 11.3051 12.0016 12.8026 13.0018C14.1486 13.8977 14.9198 15.1535 14.9198 16.505C14.9198 17.8564 14.1487 19.1145 12.8032 20.0152L12.8031 20.0153C11.301 21.0203 9.3609 21.5 7.45988 21.5C5.55917 21.5 3.61936 21.0204 2.11742 20.0158C0.771269 19.1198 0 17.8639 0 16.5124C0 15.161 0.77106 13.9029 2.11654 13.0022L2.11926 13.0004C3.62546 12.0017 5.56688 11.5248 7.46727 11.5248ZM2.93749 14.2315C1.89915 14.927 1.47818 15.7675 1.47818 16.5124C1.47818 17.2571 1.89897 18.095 2.93707 18.7856L2.93869 18.7867C4.14664 19.5949 5.78371 20.0218 7.45988 20.0218C9.13599 20.0218 10.773 19.595 11.9809 18.7868C13.0202 18.0911 13.4416 17.2502 13.4416 16.505C13.4416 15.7603 13.0208 14.9224 11.9827 14.2317L11.9816 14.231C10.7789 13.4277 9.14431 13.0029 7.46727 13.0029C5.79109 13.0029 4.151 13.4273 2.93749 14.2315Z" fill="#BFB6C3"/>
</svg>
