<svg width="15" height="22" viewBox="0 0 15 22" fill="none" xmlns="http://www.w3.org/2000/svg">
<path d="M7.392 0.5C4.641 0.5 2.4045 2.7365 2.4045 5.4875C2.4045 8.186 4.515 10.37 7.266 10.4645C7.35 10.454 7.434 10.454 7.497 10.4645C7.518 10.4645 7.5285 10.4645 7.5495 10.4645C7.56 10.4645 7.56 10.4645 7.5705 10.4645C10.2585 10.37 12.369 8.186 12.3795 5.4875C12.3795 2.7365 10.143 0.5 7.392 0.5Z" fill="#9219C7"/>
<path d="M12.726 13.2575C9.7965 11.3045 5.019 11.3045 2.0685 13.2575C0.735 14.15 0 15.3575 0 16.649C0 17.9405 0.735 19.1375 2.058 20.0195C3.528 21.0065 5.46 21.5 7.392 21.5C9.324 21.5 11.256 21.0065 12.726 20.0195C14.049 19.127 14.784 17.93 14.784 16.628C14.7735 15.3365 14.049 14.1395 12.726 13.2575Z" fill="#9219C7"/>
</svg>
