<svg width="40" height="40" viewBox="0 0 40 40" fill="none" xmlns="http://www.w3.org/2000/svg">
<rect width="40" height="40" rx="10" fill="#F0F0F0"/>
<path d="M19.5814 28.1628C14.8512 28.1628 11 24.3116 11 19.5814C11 14.8512 14.8512 11 19.5814 11C24.3116 11 28.1628 14.8512 28.1628 19.5814C28.1628 24.3116 24.3116 28.1628 19.5814 28.1628ZM19.5814 12.2558C15.5377 12.2558 12.2558 15.546 12.2558 19.5814C12.2558 23.6167 15.5377 26.907 19.5814 26.907C23.6251 26.907 26.907 23.6167 26.907 19.5814C26.907 15.546 23.6251 12.2558 19.5814 12.2558Z" fill="#28222A"/>
<path d="M28.3721 29C28.213 29 28.054 28.9414 27.9284 28.8158L26.254 27.1414C26.0112 26.8986 26.0112 26.4967 26.254 26.254C26.4967 26.0112 26.8986 26.0112 27.1414 26.254L28.8158 27.9284C29.0586 28.1712 29.0586 28.573 28.8158 28.8158C28.6902 28.9414 28.5312 29 28.3721 29Z" fill="#28222A"/>
</svg>
