<svg width="48" height="48" viewBox="0 0 48 48" fill="none" xmlns="http://www.w3.org/2000/svg">
<rect width="48" height="48" rx="24" fill="#9219C7"/>
<path d="M30.07 20.5101L21.51 16.2301C15.76 13.3501 13.4 15.7101 16.28 21.4601L17.15 23.2001C17.4 23.7101 17.4 24.3001 17.15 24.8101L16.28 26.5401C13.4 32.2901 15.75 34.6501 21.51 31.7701L30.07 27.4901C33.91 25.5701 33.91 22.4301 30.07 20.5101ZM26.84 24.7501H21.44C21.03 24.7501 20.69 24.4101 20.69 24.0001C20.69 23.5901 21.03 23.2501 21.44 23.2501H26.84C27.25 23.2501 27.59 23.5901 27.59 24.0001C27.59 24.4101 27.25 24.7501 26.84 24.7501Z" fill="white"/>
</svg>
