<svg width="24" height="24" viewBox="0 0 24 24" fill="none" xmlns="http://www.w3.org/2000/svg">
<path fill-rule="evenodd" clip-rule="evenodd" d="M16.2308 4.38462C15.8023 4.38462 15.3915 4.55481 15.0885 4.85775C14.7856 5.16069 14.6154 5.57157 14.6154 6C14.6154 6.26123 14.6787 6.51594 14.7967 6.74364C14.8305 6.77698 14.8613 6.81432 14.8885 6.85551C14.9187 6.9012 14.9427 6.94915 14.9609 6.9984C15.0003 7.04859 15.0429 7.09664 15.0885 7.14225C15.3915 7.44519 15.8023 7.61538 16.2308 7.61538C16.6592 7.61538 17.0701 7.44519 17.373 7.14225C17.676 6.83931 17.8462 6.42843 17.8462 6C17.8462 5.57157 17.676 5.16069 17.373 4.85775C17.0701 4.55481 16.6592 4.38462 16.2308 4.38462ZM14.1571 8.16792C14.7147 8.70135 15.4574 9 16.2308 9C17.0264 9 17.7895 8.68393 18.3521 8.12132C18.9147 7.55871 19.2308 6.79565 19.2308 6C19.2308 5.20435 18.9147 4.44129 18.3521 3.87868C17.7895 3.31607 17.0264 3 16.2308 3C15.4351 3 14.6721 3.31607 14.1094 3.87868C13.5468 4.44129 13.2308 5.20435 13.2308 6C13.2308 6.34601 13.2905 6.68585 13.4044 7.00573L9.35446 9.67928C9.28229 9.58788 9.2045 9.50032 9.12132 9.41714C8.55871 8.85453 7.79565 8.53846 7 8.53846C6.20435 8.53846 5.44129 8.85453 4.87868 9.41714C4.31607 9.97975 4 10.7428 4 11.5385C4 12.3341 4.31607 13.0972 4.87868 13.6598C5.44129 14.2224 6.20435 14.5385 7 14.5385C7.72746 14.5385 8.42768 14.2742 8.97236 13.799L13.4896 16.781C13.3206 17.1611 13.2308 17.5759 13.2308 18C13.2308 18.7956 13.5468 19.5587 14.1094 20.1213C14.6721 20.6839 15.4351 21 16.2308 21C17.0264 21 17.7895 20.6839 18.3521 20.1213C18.9147 19.5587 19.2308 18.7956 19.2308 18C19.2308 17.2044 18.9147 16.4413 18.3521 15.8787C17.7895 15.3161 17.0264 15 16.2308 15C15.5355 15 14.8651 15.2414 14.3315 15.6777L9.77779 12.6715C9.92315 12.3152 10 11.9308 10 11.5385C10 11.3396 9.98026 11.1428 9.94186 10.9506L14.1571 8.16792ZM7 9.92308C6.57157 9.92308 6.16069 10.0933 5.85775 10.3962C5.55481 10.6992 5.38462 11.11 5.38462 11.5385C5.38462 11.9669 5.55481 12.3778 5.85775 12.6807C6.16069 12.9837 6.57157 13.1538 7 13.1538C7.42843 13.1538 7.83931 12.9837 8.14225 12.6807C8.44519 12.3778 8.61538 11.9669 8.61538 11.5385C8.61538 11.11 8.44519 10.6992 8.14225 10.3962C7.83931 10.0933 7.42843 9.92308 7 9.92308ZM16.2308 16.3846C15.8023 16.3846 15.3915 16.5548 15.0885 16.8577C14.7856 17.1607 14.6154 17.5716 14.6154 18C14.6154 18.4284 14.7856 18.8393 15.0885 19.1422C15.3915 19.4452 15.8023 19.6154 16.2308 19.6154C16.6592 19.6154 17.0701 19.4452 17.373 19.1422C17.676 18.8393 17.8462 18.4284 17.8462 18C17.8462 17.5716 17.676 17.1607 17.373 16.8577C17.0701 16.5548 16.6592 16.3846 16.2308 16.3846Z" fill="#28222A"/>
</svg>
