<svg width="18" height="18" viewBox="0 0 18 18" fill="none" xmlns="http://www.w3.org/2000/svg">
<path d="M9 18C4.03535 18 0 13.9647 0 9C0 4.03535 4.03535 0 9 0C13.9647 0 18 4.03535 18 9C18 13.9647 13.9647 18 9 18ZM9 1.25581C4.73023 1.25581 1.25581 4.73023 1.25581 9C1.25581 13.2698 4.73023 16.7442 9 16.7442C13.2698 16.7442 16.7442 13.2698 16.7442 9C16.7442 4.73023 13.2698 1.25581 9 1.25581Z" fill="#A294A8"/>
<path d="M12.106 12.2902C11.9972 12.2902 11.8884 12.2651 11.7879 12.1981L9.19256 10.6493C8.54791 10.2642 8.0707 9.4186 8.0707 8.67349V5.24093C8.0707 4.89767 8.35535 4.61302 8.6986 4.61302C9.04186 4.61302 9.32651 4.89767 9.32651 5.24093V8.67349C9.32651 8.97488 9.57767 9.4186 9.83721 9.5693L12.4326 11.1181C12.734 11.294 12.826 11.6791 12.6502 11.9805C12.5247 12.1814 12.3153 12.2902 12.106 12.2902Z" fill="#A294A8"/>
</svg>
