<svg width="16" height="16" viewBox="0 0 16 16" fill="none" xmlns="http://www.w3.org/2000/svg">
<path fill-rule="evenodd" clip-rule="evenodd" d="M0.5 8C0.5 3.8738 3.8738 0.5 8 0.5C12.1262 0.5 15.5 3.8738 15.5 8C15.5 12.1262 12.1262 15.5 8 15.5C3.8738 15.5 0.5 12.1262 0.5 8ZM8 1.54651C4.45178 1.54651 1.54651 4.45178 1.54651 8C1.54651 11.5482 4.45178 14.4535 8 14.4535C11.5482 14.4535 14.4535 11.5482 14.4535 8C14.4535 4.45178 11.5482 1.54651 8 1.54651Z" fill="#500E6D"/>
<path fill-rule="evenodd" clip-rule="evenodd" d="M4.68605 8C4.68605 7.71101 4.92032 7.47674 5.2093 7.47674H10.7907C11.0797 7.47674 11.314 7.71101 11.314 8C11.314 8.28899 11.0797 8.52326 10.7907 8.52326H5.2093C4.92032 8.52326 4.68605 8.28899 4.68605 8Z" fill="#500E6D"/>
<path fill-rule="evenodd" clip-rule="evenodd" d="M8 4.68605C8.28899 4.68605 8.52326 4.92032 8.52326 5.2093V10.7907C8.52326 11.0797 8.28899 11.314 8 11.314C7.71101 11.314 7.47674 11.0797 7.47674 10.7907V5.2093C7.47674 4.92032 7.71101 4.68605 8 4.68605Z" fill="#500E6D"/>
</svg>
