<svg width="82" height="82" viewBox="0 0 82 82" fill="none" xmlns="http://www.w3.org/2000/svg">
<path d="M41 82C63.6437 82 82 63.6437 82 41C82 18.3563 63.6437 0 41 0C18.3563 0 0 18.3563 0 41C0 63.6437 18.3563 82 41 82Z" fill="#4A404F"/>
<path d="M41 20.2132C32.513 20.2132 25.625 27.1012 25.625 35.5882C25.625 43.9112 32.144 50.6762 40.795 50.9222C40.918 50.9222 41.082 50.9222 41.164 50.9222C41.246 50.9222 41.369 50.9222 41.451 50.9222C41.492 50.9222 41.533 50.9222 41.533 50.9222C49.815 50.6352 56.334 43.9112 56.375 35.5882C56.375 27.1012 49.487 20.2132 41 20.2132Z" fill="#F8F7F8"/>
<path d="M68.7979 71.1349C61.4999 77.8589 51.742 82 41 82C30.258 82 20.4999 77.8589 13.2019 71.1349C14.1859 67.4039 16.8509 64.0009 20.7459 61.3769C31.9389 53.9149 50.1429 53.9149 61.2539 61.3769C65.1899 64.0009 67.8139 67.4039 68.7979 71.1349Z" fill="#F8F7F8"/>
</svg>
